<?xml version="1.0" encoding="UTF-8"?>
<svg version="1.1" xmlns="http://www.w3.org/2000/svg" width="501" height="76">
<path d="M0 0 C5.13181394 3.4609908 8.41764204 7.03789143 10.6875 12.8125 C11.11963086 16.43964595 11.10809609 20.03805693 11.0859375 23.6875 C11.09024277 25.25153564 11.09024277 25.25153564 11.09463501 26.84716797 C11.09667133 29.04590398 11.09117177 31.24465829 11.07861328 33.44335938 C11.06255407 36.80119488 11.07847726 40.15782675 11.09765625 43.515625 C11.09567374 45.65625265 11.09182991 47.79687955 11.0859375 49.9375 C11.09201019 50.93765137 11.09808289 51.93780273 11.1043396 52.96826172 C11.03525166 59.84438782 9.96760844 64.16264424 5.375 69.5 C0.19374199 73.95829178 -4.0274674 75.39388083 -10.78515625 75.16015625 C-16.36914347 74.39203436 -20.561331 71.97616076 -24.25 67.75 C-26.81322745 64.09934273 -27.4350361 61.49276176 -27.62890625 57.14453125 C-27.67080078 56.25185547 -27.71269531 55.35917969 -27.75585938 54.43945312 C-27.79517578 53.51068359 -27.83449219 52.58191406 -27.875 51.625 C-27.91818359 50.68462891 -27.96136719 49.74425781 -28.00585938 48.77539062 C-28.11188665 46.45457146 -28.21395029 44.13364675 -28.3125 41.8125 C-28.46807373 42.4422876 -28.62364746 43.0720752 -28.78393555 43.72094727 C-29.50701025 46.60979656 -30.2532776 49.49217683 -31 52.375 C-31.24427734 53.36564453 -31.48855469 54.35628906 -31.74023438 55.37695312 C-33.54377949 62.24868832 -35.55759174 67.71061926 -41.19921875 72.37109375 C-47.21668353 75.30803426 -53.11386865 76.16154478 -59.5859375 74.08203125 C-65.26259949 71.49693425 -68.98062409 67.64218977 -71.3125 61.8125 C-71.5078125 58.578125 -71.5078125 58.578125 -71.4375 55.0625 C-71.41945312 53.89203125 -71.40140625 52.7215625 -71.3828125 51.515625 C-71.35960937 50.62359375 -71.33640625 49.7315625 -71.3125 48.8125 C-71.76520264 49.63657349 -71.76520264 49.63657349 -72.22705078 50.47729492 C-73.61793298 52.99207145 -75.02746786 55.49591443 -76.4375 58 C-76.911875 58.86431641 -77.38625 59.72863281 -77.875 60.61914062 C-81.30030287 66.65970853 -84.49721016 70.58691426 -90.5625 74.125 C-96.03933136 75.49420784 -101.29934212 75.53419811 -106.625 73.625 C-112.28495989 69.80781775 -116.35817797 65.54908917 -117.73828125 58.69921875 C-118.43744676 50.3229418 -114.32219859 43.81661623 -110.3125 36.8125 C-109.77093262 35.85746582 -109.22936523 34.90243164 -108.67138672 33.91845703 C-105.6532009 28.61309705 -102.60687008 23.32402754 -99.51953125 18.05859375 C-98.9985083 17.16841553 -98.47748535 16.2782373 -97.94067383 15.36108398 C-94.23293286 9.55734909 -90.90572763 5.93094255 -84.3125 3.8125 C-77.48486873 2.73958651 -71.98913629 3.87283889 -66.3125 7.8125 C-64.47418536 9.39139311 -62.92831483 10.99470832 -61.3125 12.8125 C-60.796875 11.760625 -60.28125 10.70875 -59.75 9.625 C-57.14302483 5.05119658 -53.38064183 1.75196978 -48.296875 0.1953125 C-42.08649607 -1.00275273 -36.84695745 -0.04976486 -31.3125 2.8125 C-29.14274659 4.36034956 -27.27591682 5.99633944 -25.3125 7.8125 C-24.631875 6.884375 -23.95125 5.95625 -23.25 5 C-17.34250381 -1.98008627 -8.29203193 -2.97261522 0 0 Z " fill="#FFFFFF" transform="translate(117.3125,1.1875)"/>
<path d="M0 0 C2.96093734 1.70238697 5.32687054 3.64176563 7.5625 6.25 C8.37654297 5.50943359 8.37654297 5.50943359 9.20703125 4.75390625 C9.92246094 4.11324219 10.63789063 3.47257812 11.375 2.8125 C12.08269531 2.17441406 12.79039062 1.53632813 13.51953125 0.87890625 C18.36259263 -2.98257864 24.68333661 -2.17105414 30.5625 -1.75 C35.52731637 -0.12515101 38.89111944 2.76146264 41.5625 7.25 C43.21221708 12.66958115 43.84384627 17.57798239 43.7578125 23.25 C43.7549826 23.9711499 43.75215271 24.6922998 43.74923706 25.43530273 C43.73816696 27.70704747 43.71308895 29.97837727 43.6875 32.25 C43.6774531 33.80337967 43.66833027 35.3567656 43.66015625 36.91015625 C43.63827111 40.69026062 43.60383514 44.47006032 43.5625 48.25 C39.2725 48.25 34.9825 48.25 30.5625 48.25 C30.51351562 46.14238281 30.46453125 44.03476563 30.4140625 41.86328125 C30.35997781 39.81121009 30.30269994 37.75925103 30.24511719 35.70727539 C30.20694851 34.2864627 30.17207487 32.86555737 30.140625 31.44458008 C30.09470935 29.39631145 30.03676195 27.34867392 29.9765625 25.30078125 C29.9451416 24.07012939 29.9137207 22.83947754 29.88134766 21.5715332 C29.48891437 17.48343608 28.69684698 14.51523317 25.9375 11.4375 C22.49163631 9.71456816 19.28167771 9.45303335 15.5625 10.25 C12.04006275 12.94803704 10.31374747 14.92739433 9.5625 19.25 C9.41475139 21.49240577 9.31505632 23.73816543 9.24609375 25.984375 C9.18325195 27.92763672 9.18325195 27.92763672 9.11914062 29.91015625 C9.07933329 31.27343476 9.03962094 32.63671606 9 34 C8.95677726 35.37891875 8.91316179 36.75782526 8.86914062 38.13671875 C8.76306101 41.50769306 8.66227635 44.87883323 8.5625 48.25 C4.2725 48.25 -0.0175 48.25 -4.4375 48.25 C-4.45208252 47.30680908 -4.46666504 46.36361816 -4.48168945 45.3918457 C-4.54289606 41.87841339 -4.61707508 38.36574554 -4.69995117 34.8527832 C-4.73311916 33.33498379 -4.76117632 31.81706344 -4.78393555 30.29907227 C-4.81763278 28.11161981 -4.86995204 25.92526736 -4.92578125 23.73828125 C-4.95196533 22.42384033 -4.97814941 21.10939941 -5.00512695 19.75512695 C-5.45824633 16.08181535 -6.15529855 14.13733318 -8.4375 11.25 C-12.6142959 9.8577347 -16.5230234 9.62908867 -20.75 11 C-22.92139328 12.60843946 -23.45833971 13.71405278 -24.4375 16.25 C-24.67213919 18.74587111 -24.80907742 21.14211723 -24.8515625 23.640625 C-24.87092865 24.34523865 -24.8902948 25.04985229 -24.9102478 25.77581787 C-24.96982735 28.01709039 -25.01634123 30.25841489 -25.0625 32.5 C-25.10069979 34.02345938 -25.13975269 35.54689762 -25.1796875 37.0703125 C-25.27551018 40.79668106 -25.35962107 44.52320835 -25.4375 48.25 C-29.7275 48.25 -34.0175 48.25 -38.4375 48.25 C-38.4375 32.08 -38.4375 15.91 -38.4375 -0.75 C-34.1475 -0.75 -29.8575 -0.75 -25.4375 -0.75 C-25.1075 0.9 -24.7775 2.55 -24.4375 4.25 C-23.509375 3.445625 -22.58125 2.64125 -21.625 1.8125 C-15.75240748 -3.27708019 -6.8690401 -3.29249102 0 0 Z " fill="#FFFFFF" transform="translate(187.4375,22.75)"/>
<path d="M0 0 C4.29 0 8.58 0 13 0 C13 22.44 13 44.88 13 68 C8.71 68 4.42 68 0 68 C-0.33 66.02 -0.66 64.04 -1 62 C-1.886875 62.78375 -2.77375 63.5675 -3.6875 64.375 C-9.46159861 69.10413412 -14.67203232 69.69576416 -22 69 C-29.30659754 67.53601871 -35.16877817 63.0718696 -39.390625 57 C-43.03251259 50.02398997 -43.34119619 41.87707705 -41.26953125 34.34375 C-38.35577704 27.2080254 -33.57688854 22.91814636 -27 19 C-20.69949242 16.9971018 -13.48235644 16.90994928 -7.5 19.8125 C-4.76484574 21.32494759 -3.30140201 22.69859799 -1 25 C-0.67 16.75 -0.34 8.5 0 0 Z M-25 33 C-27.92079985 36.79368256 -29.36485804 40.37744889 -28.9375 45.1875 C-27.85045947 49.60813149 -27.08604418 52.45878148 -23.33984375 55.2265625 C-18.84140136 57.85587078 -15.23920863 58.49876737 -10.109375 57.60546875 C-5.47069687 56.27399632 -2.77581554 54.16372331 -0.125 50.1875 C1.60690553 45.28043432 1.63147999 41.69502524 -0.1875 36.8125 C-2.79004599 32.77406657 -5.44119336 30.51960221 -10 29 C-15.99411692 28.50049026 -20.39387844 28.85914325 -25 33 Z " fill="#FFFFFF" transform="translate(424,3)"/>
<path d="M0 0 C2.19572515 1.63511448 4.16993961 3.10801719 5.9375 5.1875 C6.2675 3.2075 6.5975 1.2275 6.9375 -0.8125 C11.2275 -0.8125 15.5175 -0.8125 19.9375 -0.8125 C19.9375 15.3575 19.9375 31.5275 19.9375 48.1875 C15.6475 48.1875 11.3575 48.1875 6.9375 48.1875 C6.4425 45.2175 6.4425 45.2175 5.9375 42.1875 C5.050625 42.97125 4.16375 43.755 3.25 44.5625 C-2.52409861 49.29163412 -7.73453232 49.88326416 -15.0625 49.1875 C-22.36909754 47.72351871 -28.23127817 43.2593696 -32.453125 37.1875 C-36.09501259 30.21148997 -36.40369619 22.06457705 -34.33203125 14.53125 C-31.41827704 7.3955254 -26.63938854 3.10564636 -20.0625 -0.8125 C-13.86982765 -2.81913847 -5.77428552 -3.23261283 0 0 Z M-19.0625 14.1875 C-22.42078771 19.5811136 -22.4122268 23.21013844 -21.0625 29.1875 C-19.32138538 33.6939143 -16.58638063 35.59076354 -12.3125 37.5234375 C-6.98444906 39.09595253 -2.54280403 37.92765202 2.3125 35.5 C6.32370741 31.96631728 7.74453671 28.98849074 8.3125 23.6875 C7.7565574 18.49870238 6.2711735 15.42114799 2.4375 11.875 C-4.99304303 6.85938346 -12.72343002 8.42999607 -19.0625 14.1875 Z " fill="#FFFFFF" transform="translate(353.0625,22.8125)"/>
<path d="M0 0 C1.75617416 1.23843414 3.18671149 2.60434393 4.65625 4.16796875 C4.98625 2.18796875 5.31625 0.20796875 5.65625 -1.83203125 C9.94625 -1.83203125 14.23625 -1.83203125 18.65625 -1.83203125 C18.65625 14.33796875 18.65625 30.50796875 18.65625 47.16796875 C14.36625 47.16796875 10.07625 47.16796875 5.65625 47.16796875 C5.16125 44.19796875 5.16125 44.19796875 4.65625 41.16796875 C3.769375 41.95171875 2.8825 42.73546875 1.96875 43.54296875 C-3.80534861 48.27210287 -9.01578232 48.86373291 -16.34375 48.16796875 C-23.65034754 46.70398746 -29.51252817 42.23983835 -33.734375 36.16796875 C-37.37626259 29.19195872 -37.68494619 21.0450458 -35.61328125 13.51171875 C-32.69952704 6.37599415 -27.92063854 2.08611511 -21.34375 -1.83203125 C-14.09203843 -4.13731219 -6.63006687 -3.66620223 0 0 Z M-19.34375 12.16796875 C-22.26454985 15.96165131 -23.70860804 19.54541764 -23.28125 24.35546875 C-22.19420947 28.77610024 -21.42979418 31.62675023 -17.68359375 34.39453125 C-13.18515136 37.02383953 -9.58295863 37.66673612 -4.453125 36.7734375 C0.18555313 35.44196507 2.88043446 33.33169206 5.53125 29.35546875 C7.26315553 24.44840307 7.28772999 20.86299399 5.46875 15.98046875 C2.86620401 11.94203532 0.21505664 9.68757096 -4.34375 8.16796875 C-10.33786692 7.66845901 -14.73762844 8.027112 -19.34375 12.16796875 Z " fill="#FFFFFF" transform="translate(482.34375,23.83203125)"/>
<path d="M0 0 C4.62 0 9.24 0 14 0 C14.38857178 0.9286084 14.77714355 1.8572168 15.17749023 2.81396484 C16.61738853 6.25452265 18.05819039 9.69470145 19.49926758 13.13476562 C20.12321284 14.62457091 20.746912 16.11447929 21.37036133 17.60449219 C22.2657936 19.74441147 23.16210612 21.88396017 24.05859375 24.0234375 C24.3377916 24.69120209 24.61698944 25.35896667 24.90464783 26.04696655 C26.37519096 29.5584254 26.37519096 29.5584254 28 33 C32.62 22.11 37.24 11.22 42 0 C46.62 0 51.24 0 56 0 C55.05863228 4.70683859 53.54945145 8.53133839 51.54296875 12.828125 C51.02661613 13.95078766 51.02661613 13.95078766 50.49983215 15.09613037 C49.40072393 17.48309904 48.29433431 19.86660553 47.1875 22.25 C46.45457424 23.83700697 45.72214737 25.42424445 44.99023438 27.01171875 C43.93265193 29.30540966 42.87474386 31.59894036 41.81466675 33.89147949 C39.49631203 38.90757021 37.22107121 43.93992175 35 49 C30.38 49 25.76 49 21 49 C16.44800223 39.28510378 11.92810768 29.55631662 7.49047852 19.78857422 C6.86157293 18.40700053 6.23031327 17.02649646 5.59692383 15.64697266 C4.66470594 13.61601027 3.73977444 11.58187321 2.81640625 9.546875 C2.27443604 8.35932617 1.73246582 7.17177734 1.17407227 5.94824219 C0 3 0 3 0 0 Z " fill="#FFFFFF" transform="translate(261,22)"/>
<path d="M0 0 C4.29 0 8.58 0 13 0 C13 16.17 13 32.34 13 49 C8.71 49 4.42 49 0 49 C0 32.83 0 16.66 0 0 Z " fill="#FFFFFF" transform="translate(242,22)"/>
<path d="M0 0 C2.5881216 2.25417042 2.94242643 3.60520979 3.4375 7 C3 10 3 10 1.5 12.375 C-1.53367312 14.34688753 -3.51951801 14.64275043 -7.08984375 14.44921875 C-9 14 -9 14 -11.5625 11.875 C-13.34196438 8.31607124 -13.2227635 6.74980806 -12 3 C-8.4443674 -1.48318894 -5.42342028 -1.23692041 0 0 Z " fill="#FFFFFF" transform="translate(253,2)"/>
</svg>
