<svg width="793" height="1254" viewBox="0 0 793 1254" fill="none" xmlns="http://www.w3.org/2000/svg">
<rect x="2.5" y="1251.5" width="1249" height="783" rx="27.5" transform="rotate(-90 2.5 1251.5)" fill="white" stroke="#969292" stroke-width="5"/>
<rect x="5" y="232" width="536" height="116" fill="white" stroke="#969292" stroke-width="2"/>
<path d="M630 233H782V1224C782 1237.81 770.807 1249 757 1249H630V233Z" fill="white" stroke="#969292" stroke-width="2"/>
<path d="M5 1108H162V1249H30C16.1929 1249 5 1237.81 5 1224V1108Z" fill="white" stroke="#969292" stroke-width="2"/>
<rect x="66" y="407" width="59" height="109" rx="8" fill="#ABABAB"/>
<path d="M69.6321 464V456.727H74.5327V457.995H71.1697V459.728H74.2805V460.996H71.1697V462.732H74.5469V464H69.6321ZM77.2395 456.727V464H75.7267V456.727H77.2395ZM80.9371 464.107C80.3761 464.107 79.8931 463.993 79.4883 463.766C79.0858 463.536 78.7757 463.212 78.5579 462.793C78.3401 462.371 78.2312 461.873 78.2312 461.298C78.2312 460.737 78.3401 460.244 78.5579 459.82C78.7757 459.397 79.0823 459.066 79.4776 458.83C79.8754 458.593 80.3417 458.474 80.8768 458.474C81.2366 458.474 81.5716 458.532 81.8817 458.648C82.1942 458.762 82.4665 458.934 82.6985 459.163C82.9329 459.393 83.1152 459.682 83.2454 460.03C83.3756 460.375 83.4407 460.78 83.4407 461.244V461.66H78.8349V460.722H82.0167C82.0167 460.504 81.9693 460.312 81.8746 460.143C81.7799 459.975 81.6486 459.844 81.4805 459.749C81.3147 459.652 81.1218 459.604 80.9016 459.604C80.672 459.604 80.4684 459.657 80.2908 459.763C80.1156 459.868 79.9783 460.009 79.8789 460.186C79.7795 460.361 79.7286 460.557 79.7262 460.772V461.663C79.7262 461.933 79.7759 462.166 79.8754 462.363C79.9772 462.559 80.1204 462.711 80.305 462.817C80.4897 462.924 80.7087 462.977 80.962 462.977C81.1301 462.977 81.284 462.954 81.4237 462.906C81.5633 462.859 81.6829 462.788 81.7823 462.693C81.8817 462.598 81.9575 462.482 82.0096 462.345L83.4087 462.438C83.3377 462.774 83.1921 463.067 82.9719 463.318C82.7541 463.567 82.4724 463.761 82.1268 463.901C81.7835 464.038 81.387 464.107 80.9371 464.107ZM86.8924 464.107C86.3337 464.107 85.8531 463.988 85.4506 463.751C85.0505 463.512 84.7428 463.181 84.5273 462.757C84.3143 462.333 84.2077 461.846 84.2077 461.294C84.2077 460.735 84.3155 460.245 84.5309 459.824C84.7487 459.4 85.0576 459.07 85.4577 458.833C85.8578 458.594 86.3337 458.474 86.8853 458.474C87.3612 458.474 87.7778 458.561 88.1353 458.734C88.4928 458.906 88.7757 459.149 88.984 459.462C89.1924 459.774 89.3072 460.141 89.3285 460.562H87.9009C87.8607 460.29 87.7541 460.071 87.5813 459.906C87.4109 459.737 87.1871 459.653 86.9102 459.653C86.6758 459.653 86.471 459.717 86.2958 459.845C86.123 459.971 85.988 460.154 85.891 460.396C85.7939 460.637 85.7454 460.929 85.7454 461.273C85.7454 461.621 85.7927 461.917 85.8874 462.161C85.9845 462.404 86.1206 462.59 86.2958 462.718C86.471 462.846 86.6758 462.91 86.9102 462.91C87.083 462.91 87.238 462.874 87.3754 462.803C87.515 462.732 87.6299 462.629 87.7198 462.494C87.8121 462.357 87.8725 462.192 87.9009 462.001H89.3285C89.3048 462.417 89.1912 462.784 88.9876 463.102C88.7863 463.416 88.5082 463.663 88.1531 463.84C87.7979 464.018 87.3777 464.107 86.8924 464.107ZM93.1983 458.545V459.682H89.9135V458.545H93.1983ZM90.6593 457.239H92.1721V462.324C92.1721 462.464 92.1934 462.572 92.236 462.651C92.2786 462.726 92.3378 462.78 92.4135 462.81C92.4917 462.841 92.5816 462.857 92.6834 462.857C92.7544 462.857 92.8255 462.851 92.8965 462.839C92.9675 462.825 93.022 462.814 93.0598 462.807L93.2978 463.933C93.222 463.956 93.1155 463.983 92.9782 464.014C92.8408 464.047 92.6739 464.067 92.4775 464.075C92.1129 464.089 91.7933 464.04 91.5186 463.929C91.2464 463.818 91.0345 463.645 90.883 463.411C90.7315 463.176 90.6569 462.88 90.6593 462.523V457.239ZM94.1838 464V458.545H95.6504V459.497H95.7072C95.8066 459.159 95.9735 458.903 96.2079 458.73C96.4423 458.555 96.7122 458.467 97.0176 458.467C97.0933 458.467 97.175 458.472 97.2626 458.482C97.3502 458.491 97.4271 458.504 97.4934 458.521V459.863C97.4224 459.842 97.3242 459.823 97.1987 459.806C97.0732 459.79 96.9584 459.781 96.8542 459.781C96.6317 459.781 96.4328 459.83 96.2576 459.927C96.0848 460.022 95.9475 460.154 95.8457 460.325C95.7463 460.495 95.6966 460.692 95.6966 460.914V464H94.1838ZM98.2756 464V458.545H99.7884V464H98.2756ZM99.0355 457.842C98.8106 457.842 98.6177 457.768 98.4567 457.619C98.2981 457.467 98.2188 457.286 98.2188 457.075C98.2188 456.867 98.2981 456.688 98.4567 456.539C98.6177 456.388 98.8106 456.312 99.0355 456.312C99.2604 456.312 99.4522 456.388 99.6108 456.539C99.7718 456.688 99.8523 456.867 99.8523 457.075C99.8523 457.286 99.7718 457.467 99.6108 457.619C99.4522 457.768 99.2604 457.842 99.0355 457.842ZM103.465 464.107C102.906 464.107 102.425 463.988 102.023 463.751C101.623 463.512 101.315 463.181 101.1 462.757C100.887 462.333 100.78 461.846 100.78 461.294C100.78 460.735 100.888 460.245 101.103 459.824C101.321 459.4 101.63 459.07 102.03 458.833C102.43 458.594 102.906 458.474 103.458 458.474C103.933 458.474 104.35 458.561 104.708 458.734C105.065 458.906 105.348 459.149 105.556 459.462C105.765 459.774 105.879 460.141 105.901 460.562H104.473C104.433 460.29 104.326 460.071 104.154 459.906C103.983 459.737 103.759 459.653 103.482 459.653C103.248 459.653 103.043 459.717 102.868 459.845C102.695 459.971 102.56 460.154 102.463 460.396C102.366 460.637 102.318 460.929 102.318 461.273C102.318 461.621 102.365 461.917 102.46 462.161C102.557 462.404 102.693 462.59 102.868 462.718C103.043 462.846 103.248 462.91 103.482 462.91C103.655 462.91 103.81 462.874 103.948 462.803C104.087 462.732 104.202 462.629 104.292 462.494C104.384 462.357 104.445 462.192 104.473 462.001H105.901C105.877 462.417 105.763 462.784 105.56 463.102C105.359 463.416 105.08 463.663 104.725 463.84C104.37 464.018 103.95 464.107 103.465 464.107ZM108.425 464.103C108.077 464.103 107.767 464.043 107.494 463.922C107.222 463.799 107.007 463.618 106.848 463.379C106.692 463.137 106.614 462.836 106.614 462.477C106.614 462.174 106.669 461.919 106.781 461.713C106.892 461.507 107.043 461.341 107.235 461.216C107.427 461.09 107.645 460.996 107.888 460.932C108.135 460.868 108.393 460.823 108.663 460.797C108.98 460.764 109.236 460.733 109.43 460.705C109.624 460.674 109.765 460.629 109.852 460.57C109.94 460.51 109.984 460.423 109.984 460.307V460.286C109.984 460.061 109.913 459.887 109.771 459.763C109.631 459.64 109.432 459.579 109.174 459.579C108.902 459.579 108.685 459.639 108.524 459.76C108.363 459.878 108.257 460.027 108.205 460.207L106.805 460.094C106.876 459.762 107.016 459.476 107.224 459.234C107.433 458.991 107.701 458.804 108.031 458.673C108.362 458.541 108.746 458.474 109.181 458.474C109.484 458.474 109.774 458.51 110.051 458.581C110.33 458.652 110.578 458.762 110.793 458.911C111.011 459.06 111.183 459.252 111.308 459.487C111.434 459.719 111.496 459.997 111.496 460.321V464H110.062V463.244H110.019C109.932 463.414 109.814 463.564 109.668 463.695C109.521 463.822 109.344 463.923 109.138 463.996C108.933 464.067 108.695 464.103 108.425 464.103ZM108.858 463.059C109.08 463.059 109.277 463.015 109.447 462.928C109.618 462.838 109.752 462.717 109.849 462.565C109.946 462.414 109.994 462.242 109.994 462.05V461.472C109.947 461.502 109.882 461.531 109.799 461.557C109.719 461.58 109.627 461.603 109.526 461.624C109.424 461.643 109.322 461.661 109.22 461.678C109.118 461.692 109.026 461.705 108.943 461.717C108.766 461.743 108.611 461.784 108.478 461.841C108.345 461.898 108.242 461.975 108.169 462.072C108.096 462.166 108.059 462.285 108.059 462.427C108.059 462.633 108.134 462.79 108.283 462.899C108.434 463.006 108.626 463.059 108.858 463.059ZM114.183 456.727V464H112.67V456.727H114.183ZM119.933 460.101L118.548 460.186C118.524 460.068 118.474 459.961 118.395 459.866C118.317 459.769 118.214 459.692 118.086 459.636C117.961 459.576 117.811 459.547 117.635 459.547C117.401 459.547 117.203 459.597 117.042 459.696C116.881 459.793 116.801 459.923 116.801 460.087C116.801 460.217 116.853 460.327 116.957 460.417C117.061 460.507 117.24 460.579 117.493 460.634L118.481 460.832C119.011 460.941 119.406 461.116 119.667 461.358C119.927 461.599 120.057 461.917 120.057 462.31C120.057 462.667 119.952 462.981 119.741 463.251C119.533 463.521 119.247 463.731 118.882 463.883C118.52 464.032 118.102 464.107 117.628 464.107C116.906 464.107 116.331 463.956 115.903 463.656C115.476 463.353 115.227 462.941 115.153 462.42L116.641 462.342C116.686 462.562 116.795 462.73 116.968 462.846C117.141 462.96 117.362 463.016 117.632 463.016C117.897 463.016 118.11 462.965 118.271 462.864C118.434 462.759 118.517 462.626 118.52 462.462C118.517 462.325 118.459 462.213 118.346 462.125C118.232 462.035 118.057 461.966 117.82 461.919L116.876 461.731C116.343 461.624 115.946 461.44 115.686 461.177C115.428 460.914 115.299 460.579 115.299 460.172C115.299 459.821 115.394 459.52 115.583 459.266C115.775 459.013 116.043 458.818 116.389 458.68C116.737 458.543 117.144 458.474 117.611 458.474C118.3 458.474 118.842 458.62 119.237 458.911C119.635 459.202 119.867 459.599 119.933 460.101Z" fill="black"/>
<path d="M40 319C35.5817 319 32 315.418 32 311V269C32 264.582 35.5817 261 40 261H70C74.4183 261 78 264.582 78 269V311C78 315.418 74.4183 319 70 319H40Z" fill="#D9D9D9"/>
<path d="M23 307V273H32V307H23Z" fill="#ABABAB"/>
<path d="M135 319C130.582 319 127 315.418 127 311V269C127 264.582 130.582 261 135 261H165C169.418 261 173 264.582 173 269V311C173 315.418 169.418 319 165 319H135Z" fill="#D9D9D9"/>
<path d="M118 307V273H127V307H118Z" fill="#ABABAB"/>
<path d="M223 319C218.582 319 215 315.418 215 311V269C215 264.582 218.582 261 223 261H253C257.418 261 261 264.582 261 269V311C261 315.418 257.418 319 253 319H223Z" fill="#D9D9D9"/>
<path d="M206 307V273H215V307H206Z" fill="#ABABAB"/>
<path d="M311 319C306.582 319 303 315.418 303 311V269C303 264.582 306.582 261 311 261H341C345.418 261 349 264.582 349 269V311C349 315.418 345.418 319 341 319H311Z" fill="#D9D9D9"/>
<path d="M294 307V273H303V307H294Z" fill="#ABABAB"/>
<path d="M399 319C394.582 319 391 315.418 391 311V269C391 264.582 394.582 261 399 261H429C433.418 261 437 264.582 437 269V311C437 315.418 433.418 319 429 319H399Z" fill="#D9D9D9"/>
<path d="M382 307V273H391V307H382Z" fill="#ABABAB"/>
<path d="M486 319C481.582 319 478 315.418 478 311V269C478 264.582 481.582 261 486 261H516C520.418 261 524 264.582 524 269V311C524 315.418 520.418 319 516 319H486Z" fill="#D9D9D9"/>
<path d="M469 307V273H478V307H469Z" fill="#ABABAB"/>
<path d="M452 421C452 416.582 455.582 413 460 413H502C506.418 413 510 416.582 510 421V451C510 455.418 506.418 459 502 459H460C455.582 459 452 455.418 452 451V421Z" fill="#D9D9D9"/>
<path d="M464 404H498V413H464V404Z" fill="#ABABAB"/>
<path d="M512 1135C512 1130.58 515.582 1127 520 1127H562C566.418 1127 570 1130.58 570 1135V1165C570 1169.42 566.418 1173 562 1173H520C515.582 1173 512 1169.42 512 1165V1135Z" fill="#D9D9D9"/>
<path d="M524 1118H558V1127H524V1118Z" fill="#ABABAB"/>
<path d="M452 577C452 572.582 455.582 569 460 569H502C506.418 569 510 572.582 510 577V607C510 611.418 506.418 615 502 615H460C455.582 615 452 611.418 452 607V577Z" fill="#D9D9D9"/>
<path d="M464 560H498V569H464V560Z" fill="#ABABAB"/>
<path d="M453 733C453 728.582 456.582 725 461 725H503C507.418 725 511 728.582 511 733V763C511 767.418 507.418 771 503 771H461C456.582 771 453 767.418 453 763V733Z" fill="#D9D9D9"/>
<path d="M465 716H499V725H465V716Z" fill="#ABABAB"/>
<path d="M453 887C453 882.582 456.582 879 461 879H503C507.418 879 511 882.582 511 887V917C511 921.418 507.418 925 503 925H461C456.582 925 453 921.418 453 917V887Z" fill="#D9D9D9"/>
<path d="M465 870H499V879H465V870Z" fill="#ABABAB"/>
<path d="M195 501C195 505.418 191.418 509 187 509H145C140.582 509 137 505.418 137 501V471C137 466.582 140.582 463 145 463H187C191.418 463 195 466.582 195 471V501Z" fill="#D9D9D9"/>
<path d="M183 518H149V509H183V518Z" fill="#ABABAB"/>
<path d="M255 1215C255 1219.42 251.418 1223 247 1223H205C200.582 1223 197 1219.42 197 1215V1185C197 1180.58 200.582 1177 205 1177H247C251.418 1177 255 1180.58 255 1185V1215Z" fill="#D9D9D9"/>
<path d="M243 1232H209V1223H243V1232Z" fill="#ABABAB"/>
<path d="M195 657C195 661.418 191.418 665 187 665H145C140.582 665 137 661.418 137 657V627C137 622.582 140.582 619 145 619H187C191.418 619 195 622.582 195 627V657Z" fill="#D9D9D9"/>
<path d="M183 674H149V665H183V674Z" fill="#ABABAB"/>
<path d="M196 813C196 817.418 192.418 821 188 821H146C141.582 821 138 817.418 138 813V783C138 778.582 141.582 775 146 775H188C192.418 775 196 778.582 196 783V813Z" fill="#D9D9D9"/>
<path d="M184 830H150V821H184V830Z" fill="#ABABAB"/>
<path d="M196 967C196 971.418 192.418 975 188 975H146C141.582 975 138 971.418 138 967V937C138 932.582 141.582 929 146 929H188C192.418 929 196 932.582 196 937V967Z" fill="#D9D9D9"/>
<path d="M184 984H150V975H184V984Z" fill="#ABABAB"/>
<path d="M132 657C132 661.418 128.418 665 124 665H82C77.5817 665 74 661.418 74 657V627C74 622.582 77.5817 619 82 619H124C128.418 619 132 622.582 132 627V657Z" fill="#D9D9D9"/>
<path d="M120 674H86V665H120V674Z" fill="#ABABAB"/>
<path d="M133 813C133 817.418 129.418 821 125 821H83C78.5817 821 75 817.418 75 813V783C75 778.582 78.5817 775 83 775H125C129.418 775 133 778.582 133 783V813Z" fill="#D9D9D9"/>
<path d="M121 830H87V821H121V830Z" fill="#ABABAB"/>
<path d="M133 967C133 971.418 129.418 975 125 975H83C78.5817 975 75 971.418 75 967V937C75 932.582 78.5817 929 83 929H125C129.418 929 133 932.582 133 937V967Z" fill="#D9D9D9"/>
<path d="M121 984H87V975H121V984Z" fill="#ABABAB"/>
<path d="M389 421C389 416.582 392.582 413 397 413H439C443.418 413 447 416.582 447 421V451C447 455.418 443.418 459 439 459H397C392.582 459 389 455.418 389 451V421Z" fill="#D9D9D9"/>
<path d="M401 404H435V413H401V404Z" fill="#ABABAB"/>
<path d="M449 1135C449 1130.58 452.582 1127 457 1127H499C503.418 1127 507 1130.58 507 1135V1165C507 1169.42 503.418 1173 499 1173H457C452.582 1173 449 1169.42 449 1165V1135Z" fill="#D9D9D9"/>
<path d="M461 1118H495V1127H461V1118Z" fill="#ABABAB"/>
<path d="M389 577C389 572.582 392.582 569 397 569H439C443.418 569 447 572.582 447 577V607C447 611.418 443.418 615 439 615H397C392.582 615 389 611.418 389 607V577Z" fill="#D9D9D9"/>
<path d="M401 560H435V569H401V560Z" fill="#ABABAB"/>
<path d="M390 733C390 728.582 393.582 725 398 725H440C444.418 725 448 728.582 448 733V763C448 767.418 444.418 771 440 771H398C393.582 771 390 767.418 390 763V733Z" fill="#D9D9D9"/>
<path d="M402 716H436V725H402V716Z" fill="#ABABAB"/>
<path d="M390 887C390 882.582 393.582 879 398 879H440C444.418 879 448 882.582 448 887V917C448 921.418 444.418 925 440 925H398C393.582 925 390 921.418 390 917V887Z" fill="#D9D9D9"/>
<path d="M402 870H436V879H402V870Z" fill="#ABABAB"/>
<path d="M258 501C258 505.418 254.418 509 250 509H208C203.582 509 200 505.418 200 501V471C200 466.582 203.582 463 208 463H250C254.418 463 258 466.582 258 471V501Z" fill="#D9D9D9"/>
<path d="M246 518H212V509H246V518Z" fill="#ABABAB"/>
<path d="M318 1215C318 1219.42 314.418 1223 310 1223H268C263.582 1223 260 1219.42 260 1215V1185C260 1180.58 263.582 1177 268 1177H310C314.418 1177 318 1180.58 318 1185V1215Z" fill="#D9D9D9"/>
<path d="M306 1232H272V1223H306V1232Z" fill="#ABABAB"/>
<path d="M258 657C258 661.418 254.418 665 250 665H208C203.582 665 200 661.418 200 657V627C200 622.582 203.582 619 208 619H250C254.418 619 258 622.582 258 627V657Z" fill="#D9D9D9"/>
<path d="M246 674H212V665H246V674Z" fill="#ABABAB"/>
<path d="M259 813C259 817.418 255.418 821 251 821H209C204.582 821 201 817.418 201 813V783C201 778.582 204.582 775 209 775H251C255.418 775 259 778.582 259 783V813Z" fill="#D9D9D9"/>
<path d="M247 830H213V821H247V830Z" fill="#ABABAB"/>
<path d="M259 967C259 971.418 255.418 975 251 975H209C204.582 975 201 971.418 201 967V937C201 932.582 204.582 929 209 929H251C255.418 929 259 932.582 259 937V967Z" fill="#D9D9D9"/>
<path d="M247 984H213V975H247V984Z" fill="#ABABAB"/>
<path d="M326 421C326 416.582 329.582 413 334 413H376C380.418 413 384 416.582 384 421V451C384 455.418 380.418 459 376 459H334C329.582 459 326 455.418 326 451V421Z" fill="#D9D9D9"/>
<path d="M338 404H372V413H338V404Z" fill="#ABABAB"/>
<path d="M386 1135C386 1130.58 389.582 1127 394 1127H436C440.418 1127 444 1130.58 444 1135V1165C444 1169.42 440.418 1173 436 1173H394C389.582 1173 386 1169.42 386 1165V1135Z" fill="#D9D9D9"/>
<path d="M398 1118H432V1127H398V1118Z" fill="#ABABAB"/>
<path d="M326 577C326 572.582 329.582 569 334 569H376C380.418 569 384 572.582 384 577V607C384 611.418 380.418 615 376 615H334C329.582 615 326 611.418 326 607V577Z" fill="#D9D9D9"/>
<path d="M338 560H372V569H338V560Z" fill="#ABABAB"/>
<path d="M327 733C327 728.582 330.582 725 335 725H377C381.418 725 385 728.582 385 733V763C385 767.418 381.418 771 377 771H335C330.582 771 327 767.418 327 763V733Z" fill="#D9D9D9"/>
<path d="M339 716H373V725H339V716Z" fill="#ABABAB"/>
<path d="M327 887C327 882.582 330.582 879 335 879H377C381.418 879 385 882.582 385 887V917C385 921.418 381.418 925 377 925H335C330.582 925 327 921.418 327 917V887Z" fill="#D9D9D9"/>
<path d="M339 870H373V879H339V870Z" fill="#ABABAB"/>
<path d="M321 501C321 505.418 317.418 509 313 509H271C266.582 509 263 505.418 263 501V471C263 466.582 266.582 463 271 463H313C317.418 463 321 466.582 321 471V501Z" fill="#D9D9D9"/>
<path d="M309 518H275V509H309V518Z" fill="#ABABAB"/>
<path d="M381 1215C381 1219.42 377.418 1223 373 1223H331C326.582 1223 323 1219.42 323 1215V1185C323 1180.58 326.582 1177 331 1177H373C377.418 1177 381 1180.58 381 1185V1215Z" fill="#D9D9D9"/>
<path d="M369 1232H335V1223H369V1232Z" fill="#ABABAB"/>
<path d="M321 657C321 661.418 317.418 665 313 665H271C266.582 665 263 661.418 263 657V627C263 622.582 266.582 619 271 619H313C317.418 619 321 622.582 321 627V657Z" fill="#D9D9D9"/>
<path d="M309 674H275V665H309V674Z" fill="#ABABAB"/>
<path d="M322 813C322 817.418 318.418 821 314 821H272C267.582 821 264 817.418 264 813V783C264 778.582 267.582 775 272 775H314C318.418 775 322 778.582 322 783V813Z" fill="#D9D9D9"/>
<path d="M310 830H276V821H310V830Z" fill="#ABABAB"/>
<path d="M322 967C322 971.418 318.418 975 314 975H272C267.582 975 264 971.418 264 967V937C264 932.582 267.582 929 272 929H314C318.418 929 322 932.582 322 937V967Z" fill="#D9D9D9"/>
<path d="M310 984H276V975H310V984Z" fill="#ABABAB"/>
<path d="M263 421C263 416.582 266.582 413 271 413H313C317.418 413 321 416.582 321 421V451C321 455.418 317.418 459 313 459H271C266.582 459 263 455.418 263 451V421Z" fill="#D9D9D9"/>
<path d="M275 404H309V413H275V404Z" fill="#ABABAB"/>
<path d="M323 1135C323 1130.58 326.582 1127 331 1127H373C377.418 1127 381 1130.58 381 1135V1165C381 1169.42 377.418 1173 373 1173H331C326.582 1173 323 1169.42 323 1165V1135Z" fill="#D9D9D9"/>
<path d="M335 1118H369V1127H335V1118Z" fill="#ABABAB"/>
<path d="M263 577C263 572.582 266.582 569 271 569H313C317.418 569 321 572.582 321 577V607C321 611.418 317.418 615 313 615H271C266.582 615 263 611.418 263 607V577Z" fill="#D9D9D9"/>
<path d="M275 560H309V569H275V560Z" fill="#ABABAB"/>
<path d="M264 733C264 728.582 267.582 725 272 725H314C318.418 725 322 728.582 322 733V763C322 767.418 318.418 771 314 771H272C267.582 771 264 767.418 264 763V733Z" fill="#D9D9D9"/>
<path d="M276 716H310V725H276V716Z" fill="#ABABAB"/>
<path d="M264 887C264 882.582 267.582 879 272 879H314C318.418 879 322 882.582 322 887V917C322 921.418 318.418 925 314 925H272C267.582 925 264 921.418 264 917V887Z" fill="#D9D9D9"/>
<path d="M276 870H310V879H276V870Z" fill="#ABABAB"/>
<path d="M384 501C384 505.418 380.418 509 376 509H334C329.582 509 326 505.418 326 501V471C326 466.582 329.582 463 334 463H376C380.418 463 384 466.582 384 471V501Z" fill="#D9D9D9"/>
<path d="M372 518H338V509H372V518Z" fill="#ABABAB"/>
<path d="M444 1215C444 1219.42 440.418 1223 436 1223H394C389.582 1223 386 1219.42 386 1215V1185C386 1180.58 389.582 1177 394 1177H436C440.418 1177 444 1180.58 444 1185V1215Z" fill="#D9D9D9"/>
<path d="M432 1232H398V1223H432V1232Z" fill="#ABABAB"/>
<path d="M384 657C384 661.418 380.418 665 376 665H334C329.582 665 326 661.418 326 657V627C326 622.582 329.582 619 334 619H376C380.418 619 384 622.582 384 627V657Z" fill="#D9D9D9"/>
<path d="M372 674H338V665H372V674Z" fill="#ABABAB"/>
<path d="M385 813C385 817.418 381.418 821 377 821H335C330.582 821 327 817.418 327 813V783C327 778.582 330.582 775 335 775H377C381.418 775 385 778.582 385 783V813Z" fill="#D9D9D9"/>
<path d="M373 830H339V821H373V830Z" fill="#ABABAB"/>
<path d="M385 967C385 971.418 381.418 975 377 975H335C330.582 975 327 971.418 327 967V937C327 932.582 330.582 929 335 929H377C381.418 929 385 932.582 385 937V967Z" fill="#D9D9D9"/>
<path d="M373 984H339V975H373V984Z" fill="#ABABAB"/>
<path d="M200 421C200 416.582 203.582 413 208 413H250C254.418 413 258 416.582 258 421V451C258 455.418 254.418 459 250 459H208C203.582 459 200 455.418 200 451V421Z" fill="#D9D9D9"/>
<path d="M212 404H246V413H212V404Z" fill="#ABABAB"/>
<path d="M260 1135C260 1130.58 263.582 1127 268 1127H310C314.418 1127 318 1130.58 318 1135V1165C318 1169.42 314.418 1173 310 1173H268C263.582 1173 260 1169.42 260 1165V1135Z" fill="#D9D9D9"/>
<path d="M272 1118H306V1127H272V1118Z" fill="#ABABAB"/>
<path d="M200 577C200 572.582 203.582 569 208 569H250C254.418 569 258 572.582 258 577V607C258 611.418 254.418 615 250 615H208C203.582 615 200 611.418 200 607V577Z" fill="#D9D9D9"/>
<path d="M212 560H246V569H212V560Z" fill="#ABABAB"/>
<path d="M201 733C201 728.582 204.582 725 209 725H251C255.418 725 259 728.582 259 733V763C259 767.418 255.418 771 251 771H209C204.582 771 201 767.418 201 763V733Z" fill="#D9D9D9"/>
<path d="M213 716H247V725H213V716Z" fill="#ABABAB"/>
<path d="M201 887C201 882.582 204.582 879 209 879H251C255.418 879 259 882.582 259 887V917C259 921.418 255.418 925 251 925H209C204.582 925 201 921.418 201 917V887Z" fill="#D9D9D9"/>
<path d="M213 870H247V879H213V870Z" fill="#ABABAB"/>
<path d="M447 501C447 505.418 443.418 509 439 509H397C392.582 509 389 505.418 389 501V471C389 466.582 392.582 463 397 463H439C443.418 463 447 466.582 447 471V501Z" fill="#D9D9D9"/>
<path d="M435 518H401V509H435V518Z" fill="#ABABAB"/>
<path d="M507 1215C507 1219.42 503.418 1223 499 1223H457C452.582 1223 449 1219.42 449 1215V1185C449 1180.58 452.582 1177 457 1177H499C503.418 1177 507 1180.58 507 1185V1215Z" fill="#D9D9D9"/>
<path d="M495 1232H461V1223H495V1232Z" fill="#ABABAB"/>
<path d="M447 657C447 661.418 443.418 665 439 665H397C392.582 665 389 661.418 389 657V627C389 622.582 392.582 619 397 619H439C443.418 619 447 622.582 447 627V657Z" fill="#D9D9D9"/>
<path d="M435 674H401V665H435V674Z" fill="#ABABAB"/>
<path d="M448 813C448 817.418 444.418 821 440 821H398C393.582 821 390 817.418 390 813V783C390 778.582 393.582 775 398 775H440C444.418 775 448 778.582 448 783V813Z" fill="#D9D9D9"/>
<path d="M436 830H402V821H436V830Z" fill="#ABABAB"/>
<path d="M448 967C448 971.418 444.418 975 440 975H398C393.582 975 390 971.418 390 967V937C390 932.582 393.582 929 398 929H440C444.418 929 448 932.582 448 937V967Z" fill="#D9D9D9"/>
<path d="M436 984H402V975H436V984Z" fill="#ABABAB"/>
<path d="M137 421C137 416.582 140.582 413 145 413H187C191.418 413 195 416.582 195 421V451C195 455.418 191.418 459 187 459H145C140.582 459 137 455.418 137 451V421Z" fill="#D9D9D9"/>
<path d="M149 404H183V413H149V404Z" fill="#ABABAB"/>
<path d="M197 1135C197 1130.58 200.582 1127 205 1127H247C251.418 1127 255 1130.58 255 1135V1165C255 1169.42 251.418 1173 247 1173H205C200.582 1173 197 1169.42 197 1165V1135Z" fill="#D9D9D9"/>
<path d="M209 1118H243V1127H209V1118Z" fill="#ABABAB"/>
<path d="M137 577C137 572.582 140.582 569 145 569H187C191.418 569 195 572.582 195 577V607C195 611.418 191.418 615 187 615H145C140.582 615 137 611.418 137 607V577Z" fill="#D9D9D9"/>
<path d="M149 560H183V569H149V560Z" fill="#ABABAB"/>
<path d="M138 733C138 728.582 141.582 725 146 725H188C192.418 725 196 728.582 196 733V763C196 767.418 192.418 771 188 771H146C141.582 771 138 767.418 138 763V733Z" fill="#D9D9D9"/>
<path d="M150 716H184V725H150V716Z" fill="#ABABAB"/>
<path d="M138 887C138 882.582 141.582 879 146 879H188C192.418 879 196 882.582 196 887V917C196 921.418 192.418 925 188 925H146C141.582 925 138 921.418 138 917V887Z" fill="#D9D9D9"/>
<path d="M150 870H184V879H150V870Z" fill="#ABABAB"/>
<path d="M74 577C74 572.582 77.5817 569 82 569H124C128.418 569 132 572.582 132 577V607C132 611.418 128.418 615 124 615H82C77.5817 615 74 611.418 74 607V577Z" fill="#D9D9D9"/>
<path d="M86 560H120V569H86V560Z" fill="#ABABAB"/>
<path d="M75 733C75 728.582 78.5817 725 83 725H125C129.418 725 133 728.582 133 733V763C133 767.418 129.418 771 125 771H83C78.5817 771 75 767.418 75 763V733Z" fill="#D9D9D9"/>
<path d="M87 716H121V725H87V716Z" fill="#ABABAB"/>
<path d="M75 887C75 882.582 78.5817 879 83 879H125C129.418 879 133 882.582 133 887V917C133 921.418 129.418 925 125 925H83C78.5817 925 75 921.418 75 917V887Z" fill="#D9D9D9"/>
<path d="M87 870H121V879H87V870Z" fill="#ABABAB"/>
<path d="M510 501C510 505.418 506.418 509 502 509H460C455.582 509 452 505.418 452 501V471C452 466.582 455.582 463 460 463H502C506.418 463 510 466.582 510 471V501Z" fill="#D9D9D9"/>
<path d="M498 518H464V509H498V518Z" fill="#ABABAB"/>
<path d="M570 1215C570 1219.42 566.418 1223 562 1223H520C515.582 1223 512 1219.42 512 1215V1185C512 1180.58 515.582 1177 520 1177H562C566.418 1177 570 1180.58 570 1185V1215Z" fill="#D9D9D9"/>
<path d="M558 1232H524V1223H558V1232Z" fill="#ABABAB"/>
<path d="M510 657C510 661.418 506.418 665 502 665H460C455.582 665 452 661.418 452 657V627C452 622.582 455.582 619 460 619H502C506.418 619 510 622.582 510 627V657Z" fill="#D9D9D9"/>
<path d="M498 674H464V665H498V674Z" fill="#ABABAB"/>
<path d="M511 813C511 817.418 507.418 821 503 821H461C456.582 821 453 817.418 453 813V783C453 778.582 456.582 775 461 775H503C507.418 775 511 778.582 511 783V813Z" fill="#D9D9D9"/>
<path d="M499 830H465V821H499V830Z" fill="#ABABAB"/>
<path d="M511 967C511 971.418 507.418 975 503 975H461C456.582 975 453 971.418 453 967V937C453 932.582 456.582 929 461 929H503C507.418 929 511 932.582 511 937V967Z" fill="#D9D9D9"/>
<path d="M499 984H465V975H499V984Z" fill="#ABABAB"/>
<line x1="101.5" y1="231" x2="101.5" y2="349" stroke="#969292"/>
<line x1="189.5" y1="231" x2="189.5" y2="349" stroke="#969292"/>
<line x1="277.5" y1="231" x2="277.5" y2="349" stroke="#969292"/>
<line x1="365.5" y1="231" x2="365.5" y2="349" stroke="#969292"/>
<line x1="453.5" y1="231" x2="453.5" y2="349" stroke="#969292"/>
<line x1="788" y1="66" x2="788" y2="148" stroke="white" stroke-width="10"/>
<line x1="634" y1="244" x2="634" y2="285" stroke="white" stroke-width="10"/>
<line x1="634" y1="398" x2="634" y2="439" stroke="white" stroke-width="10"/>
<line x1="634" y1="552" x2="634" y2="593" stroke="white" stroke-width="10"/>
<line x1="634" y1="724" x2="634" y2="765" stroke="white" stroke-width="10"/>
<line x1="634" y1="1085" x2="634" y2="1126" stroke="white" stroke-width="10"/>
<line x1="165" y1="1190" x2="165" y2="1231" stroke="white" stroke-width="10"/>
<line x1="68" y1="348" x2="27" y2="348" stroke="white" stroke-width="10"/>
<line x1="162" y1="348" x2="121" y2="348" stroke="white" stroke-width="10"/>
<line x1="248" y1="348" x2="207" y2="348" stroke="white" stroke-width="10"/>
<line x1="335" y1="348" x2="294" y2="348" stroke="white" stroke-width="10"/>
<line x1="426" y1="348" x2="385" y2="348" stroke="white" stroke-width="10"/>
<line x1="514" y1="348" x2="473" y2="348" stroke="white" stroke-width="10"/>
<path d="M524 566H550V675H524V566Z" fill="#D9D9D9"/>
<path d="M524 566H550V675H524V566Z" fill="#D9D9D9"/>
<path d="M536.447 658.917C536.718 658.407 536.864 657.839 536.871 657.261C536.873 656.713 536.722 656.176 536.438 655.708C535.562 654.266 533.529 653.494 530.994 653.646C530.903 653.651 530.816 653.69 530.751 653.755C530.686 653.82 530.647 653.906 530.642 653.998C530.493 656.533 531.267 658.568 532.704 659.441C533.656 660.018 534.811 660.016 535.914 659.45L536.969 660.5L536.055 661.415C535.243 661.02 534.392 661.031 533.689 661.457C532.607 662.112 532.027 663.625 532.138 665.509C532.143 665.601 532.182 665.688 532.247 665.753C532.312 665.818 532.399 665.857 532.491 665.862C534.375 665.973 535.887 665.393 536.543 664.312C536.761 663.955 536.876 663.544 536.875 663.125C536.87 662.714 536.772 662.309 536.588 661.942L537.5 661.031L538.125 661.656V664.5C538.125 664.599 538.165 664.695 538.235 664.765C538.305 664.835 538.401 664.875 538.5 664.875C538.599 664.875 538.695 664.835 538.765 664.765C538.835 664.695 538.875 664.599 538.875 664.5V663.801L542.688 662.953C542.883 662.911 543.058 662.804 543.183 662.648C543.308 662.492 543.376 662.298 543.375 662.099V657.901C543.376 657.701 543.308 657.507 543.183 657.352C543.058 657.196 542.883 657.089 542.688 657.047L538.875 656.199V655.5C538.875 655.401 538.835 655.305 538.765 655.235C538.695 655.165 538.599 655.125 538.5 655.125C538.401 655.125 538.305 655.165 538.235 655.235C538.165 655.305 538.125 655.401 538.125 655.5V660.595L536.447 658.917ZM533.096 658.798C531.957 658.11 531.326 656.47 531.378 654.378C533.469 654.326 535.108 654.958 535.798 656.096C536.263 656.865 536.23 657.789 535.708 658.708C534.789 659.231 533.865 659.263 533.096 658.798ZM535.846 662.151C536.194 662.776 536.213 663.401 535.899 663.923C535.429 664.701 534.312 665.141 532.875 665.125C532.857 663.688 533.299 662.57 534.077 662.099C534.596 661.784 535.222 661.804 535.849 662.151H535.846ZM538.875 656.967L542.527 657.78C542.555 657.786 542.58 657.802 542.597 657.824C542.615 657.846 542.625 657.873 542.625 657.902V662.099C542.626 662.128 542.616 662.156 542.598 662.179C542.58 662.202 542.555 662.218 542.527 662.224L538.875 663.033V656.967Z" fill="black"/>
<path d="M536.447 632.917C536.718 632.407 536.864 631.839 536.871 631.261C536.873 630.713 536.722 630.176 536.438 629.708C535.562 628.266 533.529 627.494 530.994 627.646C530.903 627.651 530.816 627.69 530.751 627.755C530.686 627.82 530.647 627.906 530.642 627.998C530.493 630.533 531.267 632.568 532.704 633.441C533.656 634.018 534.811 634.016 535.914 633.45L536.969 634.5L536.055 635.415C535.243 635.02 534.392 635.031 533.689 635.457C532.607 636.112 532.027 637.625 532.138 639.509C532.143 639.601 532.182 639.688 532.247 639.753C532.312 639.818 532.399 639.857 532.491 639.862C534.375 639.973 535.887 639.393 536.543 638.312C536.761 637.955 536.876 637.544 536.875 637.125C536.87 636.714 536.772 636.309 536.588 635.942L537.5 635.031L538.125 635.656V638.5C538.125 638.599 538.165 638.695 538.235 638.765C538.305 638.835 538.401 638.875 538.5 638.875C538.599 638.875 538.695 638.835 538.765 638.765C538.835 638.695 538.875 638.599 538.875 638.5V637.801L542.688 636.953C542.883 636.911 543.058 636.804 543.183 636.648C543.308 636.492 543.376 636.298 543.375 636.099V631.901C543.376 631.701 543.308 631.507 543.183 631.352C543.058 631.196 542.883 631.089 542.688 631.047L538.875 630.199V629.5C538.875 629.401 538.835 629.305 538.765 629.235C538.695 629.165 538.599 629.125 538.5 629.125C538.401 629.125 538.305 629.165 538.235 629.235C538.165 629.305 538.125 629.401 538.125 629.5V634.595L536.447 632.917ZM533.096 632.798C531.957 632.11 531.326 630.47 531.378 628.377C533.469 628.326 535.108 628.958 535.798 630.096C536.263 630.865 536.23 631.789 535.708 632.708C534.789 633.231 533.865 633.263 533.096 632.798ZM535.846 636.151C536.194 636.776 536.213 637.401 535.899 637.923C535.429 638.701 534.312 639.141 532.875 639.125C532.857 637.688 533.299 636.57 534.077 636.099C534.596 635.784 535.222 635.804 535.849 636.151H535.846ZM538.875 630.967L542.527 631.78C542.555 631.786 542.58 631.802 542.597 631.824C542.615 631.846 542.625 631.873 542.625 631.902V636.099C542.626 636.128 542.616 636.156 542.598 636.179C542.58 636.202 542.555 636.218 542.527 636.224L538.875 637.033V630.967Z" fill="black"/>
<path d="M536.447 606.917C536.718 606.407 536.864 605.839 536.871 605.261C536.873 604.713 536.722 604.176 536.438 603.708C535.562 602.266 533.529 601.494 530.994 601.646C530.903 601.651 530.816 601.69 530.751 601.755C530.686 601.82 530.647 601.906 530.642 601.998C530.493 604.533 531.267 606.568 532.704 607.441C533.656 608.017 534.811 608.016 535.914 607.45L536.969 608.5L536.055 609.415C535.243 609.02 534.392 609.031 533.689 609.457C532.607 610.112 532.027 611.625 532.138 613.509C532.143 613.601 532.182 613.688 532.247 613.753C532.312 613.818 532.399 613.857 532.491 613.862C534.375 613.972 535.887 613.393 536.543 612.312C536.761 611.955 536.876 611.544 536.875 611.125C536.87 610.714 536.772 610.309 536.588 609.942L537.5 609.031L538.125 609.656V612.5C538.125 612.599 538.165 612.695 538.235 612.765C538.305 612.835 538.401 612.875 538.5 612.875C538.599 612.875 538.695 612.835 538.765 612.765C538.835 612.695 538.875 612.599 538.875 612.5V611.801L542.688 610.953C542.883 610.911 543.058 610.804 543.183 610.648C543.308 610.492 543.376 610.298 543.375 610.099V605.901C543.376 605.701 543.308 605.507 543.183 605.352C543.058 605.196 542.883 605.089 542.688 605.047L538.875 604.199V603.5C538.875 603.401 538.835 603.305 538.765 603.235C538.695 603.165 538.599 603.125 538.5 603.125C538.401 603.125 538.305 603.165 538.235 603.235C538.165 603.305 538.125 603.401 538.125 603.5V608.595L536.447 606.917ZM533.096 606.798C531.957 606.11 531.326 604.47 531.378 602.377C533.469 602.326 535.108 602.958 535.798 604.096C536.263 604.865 536.23 605.789 535.708 606.708C534.789 607.231 533.865 607.263 533.096 606.798ZM535.846 610.151C536.194 610.776 536.213 611.401 535.899 611.923C535.429 612.701 534.312 613.141 532.875 613.125C532.857 611.688 533.299 610.57 534.077 610.099C534.596 609.784 535.222 609.804 535.849 610.151H535.846ZM538.875 604.967L542.527 605.78C542.555 605.786 542.58 605.802 542.597 605.824C542.615 605.846 542.625 605.873 542.625 605.902V610.099C542.626 610.128 542.616 610.156 542.598 610.179C542.58 610.202 542.555 610.218 542.527 610.224L538.875 611.033V604.967Z" fill="black"/>
<path d="M536.447 580.917C536.718 580.407 536.864 579.839 536.871 579.261C536.873 578.713 536.722 578.176 536.438 577.708C535.562 576.266 533.529 575.494 530.994 575.646C530.903 575.651 530.816 575.69 530.751 575.755C530.686 575.82 530.647 575.906 530.642 575.998C530.493 578.533 531.267 580.568 532.704 581.441C533.656 582.017 534.811 582.016 535.914 581.45L536.969 582.5L536.055 583.415C535.243 583.02 534.392 583.031 533.689 583.457C532.607 584.112 532.027 585.625 532.138 587.509C532.143 587.601 532.182 587.688 532.247 587.753C532.312 587.818 532.399 587.857 532.491 587.862C534.375 587.972 535.887 587.392 536.543 586.312C536.761 585.955 536.876 585.544 536.875 585.125C536.87 584.714 536.772 584.309 536.588 583.942L537.5 583.031L538.125 583.656V586.5C538.125 586.599 538.165 586.695 538.235 586.765C538.305 586.835 538.401 586.875 538.5 586.875C538.599 586.875 538.695 586.835 538.765 586.765C538.835 586.695 538.875 586.599 538.875 586.5V585.801L542.688 584.953C542.883 584.911 543.058 584.804 543.183 584.648C543.308 584.492 543.376 584.298 543.375 584.099V579.901C543.376 579.701 543.308 579.507 543.183 579.352C543.058 579.196 542.883 579.089 542.688 579.047L538.875 578.199V577.5C538.875 577.401 538.835 577.305 538.765 577.235C538.695 577.165 538.599 577.125 538.5 577.125C538.401 577.125 538.305 577.165 538.235 577.235C538.165 577.305 538.125 577.401 538.125 577.5V582.595L536.447 580.917ZM533.096 580.797C531.957 580.11 531.326 578.47 531.378 576.377C533.469 576.326 535.108 576.957 535.798 578.096C536.263 578.865 536.23 579.789 535.708 580.708C534.789 581.231 533.865 581.263 533.096 580.797ZM535.846 584.151C536.194 584.776 536.213 585.401 535.899 585.923C535.429 586.701 534.312 587.141 532.875 587.125C532.857 585.688 533.299 584.57 534.077 584.099C534.596 583.784 535.222 583.804 535.849 584.151H535.846ZM538.875 578.967L542.527 579.78C542.555 579.786 542.58 579.802 542.597 579.824C542.615 579.846 542.625 579.873 542.625 579.902V584.099C542.626 584.128 542.616 584.156 542.598 584.179C542.58 584.202 542.555 584.218 542.527 584.224L538.875 585.032V578.967Z" fill="black"/>
<path d="M524 407H550V516H524V407Z" fill="#D9D9D9"/>
<path d="M524 407H550V516H524V407Z" fill="#D9D9D9"/>
<path d="M536.447 499.917C536.718 499.407 536.864 498.839 536.871 498.261C536.873 497.713 536.722 497.176 536.438 496.708C535.562 495.266 533.529 494.494 530.994 494.646C530.903 494.651 530.816 494.69 530.751 494.755C530.686 494.82 530.647 494.906 530.642 494.998C530.493 497.533 531.267 499.568 532.704 500.441C533.656 501.018 534.811 501.016 535.914 500.45L536.969 501.5L536.055 502.415C535.243 502.02 534.392 502.031 533.689 502.457C532.607 503.112 532.027 504.625 532.138 506.509C532.143 506.601 532.182 506.688 532.247 506.753C532.312 506.818 532.399 506.857 532.491 506.862C534.375 506.973 535.888 506.393 536.543 505.312C536.761 504.955 536.876 504.544 536.875 504.125C536.87 503.714 536.772 503.309 536.588 502.942L537.5 502.031L538.125 502.656V505.5C538.125 505.599 538.165 505.695 538.235 505.765C538.305 505.835 538.401 505.875 538.5 505.875C538.599 505.875 538.695 505.835 538.765 505.765C538.835 505.695 538.875 505.599 538.875 505.5V504.801L542.688 503.953C542.883 503.911 543.058 503.804 543.183 503.648C543.308 503.492 543.376 503.298 543.375 503.099V498.901C543.376 498.701 543.308 498.507 543.183 498.352C543.058 498.196 542.883 498.089 542.688 498.047L538.875 497.199V496.5C538.875 496.401 538.835 496.305 538.765 496.235C538.695 496.165 538.599 496.125 538.5 496.125C538.401 496.125 538.305 496.165 538.235 496.235C538.165 496.305 538.125 496.401 538.125 496.5V501.595L536.447 499.917ZM533.096 499.798C531.957 499.11 531.326 497.47 531.378 495.378C533.469 495.326 535.108 495.958 535.798 497.096C536.263 497.865 536.23 498.789 535.708 499.708C534.789 500.231 533.865 500.263 533.096 499.798ZM535.846 503.151C536.194 503.776 536.213 504.401 535.899 504.923C535.429 505.701 534.312 506.141 532.875 506.125C532.857 504.688 533.299 503.57 534.077 503.099C534.596 502.784 535.223 502.804 535.849 503.151H535.846ZM538.875 497.967L542.527 498.78C542.555 498.786 542.58 498.802 542.597 498.824C542.615 498.846 542.625 498.873 542.625 498.902V503.099C542.626 503.128 542.616 503.156 542.598 503.179C542.58 503.202 542.555 503.218 542.527 503.224L538.875 504.033V497.967Z" fill="black"/>
<path d="M536.447 473.917C536.718 473.407 536.864 472.839 536.871 472.261C536.873 471.713 536.722 471.176 536.438 470.708C535.562 469.266 533.529 468.494 530.994 468.646C530.903 468.651 530.816 468.69 530.751 468.755C530.686 468.82 530.647 468.906 530.642 468.998C530.493 471.533 531.267 473.568 532.704 474.441C533.656 475.018 534.811 475.016 535.914 474.45L536.969 475.5L536.055 476.415C535.243 476.02 534.392 476.031 533.689 476.457C532.607 477.112 532.027 478.625 532.138 480.509C532.143 480.601 532.182 480.688 532.247 480.753C532.312 480.818 532.399 480.857 532.491 480.862C534.375 480.973 535.888 480.393 536.543 479.312C536.761 478.955 536.876 478.544 536.875 478.125C536.87 477.714 536.772 477.309 536.588 476.942L537.5 476.031L538.125 476.656V479.5C538.125 479.599 538.165 479.695 538.235 479.765C538.305 479.835 538.401 479.875 538.5 479.875C538.599 479.875 538.695 479.835 538.765 479.765C538.835 479.695 538.875 479.599 538.875 479.5V478.801L542.688 477.953C542.883 477.911 543.058 477.804 543.183 477.648C543.308 477.492 543.376 477.298 543.375 477.099V472.901C543.376 472.701 543.308 472.507 543.183 472.352C543.058 472.196 542.883 472.089 542.688 472.047L538.875 471.199V470.5C538.875 470.401 538.835 470.305 538.765 470.235C538.695 470.165 538.599 470.125 538.5 470.125C538.401 470.125 538.305 470.165 538.235 470.235C538.165 470.305 538.125 470.401 538.125 470.5V475.595L536.447 473.917ZM533.096 473.798C531.957 473.11 531.326 471.47 531.378 469.377C533.469 469.326 535.108 469.958 535.798 471.096C536.263 471.865 536.23 472.789 535.708 473.708C534.789 474.231 533.865 474.263 533.096 473.798ZM535.846 477.151C536.194 477.776 536.213 478.401 535.899 478.923C535.429 479.701 534.312 480.141 532.875 480.125C532.857 478.688 533.299 477.57 534.077 477.099C534.596 476.784 535.223 476.804 535.849 477.151H535.846ZM538.875 471.967L542.527 472.78C542.555 472.786 542.58 472.802 542.597 472.824C542.615 472.846 542.625 472.873 542.625 472.902V477.099C542.626 477.128 542.616 477.156 542.598 477.179C542.58 477.202 542.555 477.218 542.527 477.224L538.875 478.033V471.967Z" fill="black"/>
<path d="M536.447 447.917C536.718 447.407 536.864 446.839 536.871 446.261C536.873 445.713 536.722 445.176 536.438 444.708C535.562 443.266 533.529 442.494 530.994 442.646C530.903 442.651 530.816 442.69 530.751 442.755C530.686 442.82 530.647 442.906 530.642 442.998C530.493 445.533 531.267 447.568 532.704 448.441C533.656 449.017 534.811 449.016 535.914 448.45L536.969 449.5L536.055 450.415C535.243 450.02 534.392 450.031 533.689 450.457C532.607 451.112 532.027 452.625 532.138 454.509C532.143 454.601 532.182 454.688 532.247 454.753C532.312 454.818 532.399 454.857 532.491 454.862C534.375 454.972 535.888 454.393 536.543 453.312C536.761 452.955 536.876 452.544 536.875 452.125C536.87 451.714 536.772 451.309 536.588 450.942L537.5 450.031L538.125 450.656V453.5C538.125 453.599 538.165 453.695 538.235 453.765C538.305 453.835 538.401 453.875 538.5 453.875C538.599 453.875 538.695 453.835 538.765 453.765C538.835 453.695 538.875 453.599 538.875 453.5V452.801L542.688 451.953C542.883 451.911 543.058 451.804 543.183 451.648C543.308 451.492 543.376 451.298 543.375 451.099V446.901C543.376 446.701 543.308 446.507 543.183 446.352C543.058 446.196 542.883 446.089 542.688 446.047L538.875 445.199V444.5C538.875 444.401 538.835 444.305 538.765 444.235C538.695 444.165 538.599 444.125 538.5 444.125C538.401 444.125 538.305 444.165 538.235 444.235C538.165 444.305 538.125 444.401 538.125 444.5V449.595L536.447 447.917ZM533.096 447.798C531.957 447.11 531.326 445.47 531.378 443.377C533.469 443.326 535.108 443.957 535.798 445.096C536.263 445.865 536.23 446.789 535.708 447.708C534.789 448.231 533.865 448.263 533.096 447.798ZM535.846 451.151C536.194 451.776 536.213 452.401 535.899 452.923C535.429 453.701 534.312 454.141 532.875 454.125C532.857 452.688 533.299 451.57 534.077 451.099C534.596 450.784 535.223 450.804 535.849 451.151H535.846ZM538.875 445.967L542.527 446.78C542.555 446.786 542.58 446.802 542.597 446.824C542.615 446.846 542.625 446.873 542.625 446.902V451.099C542.626 451.128 542.616 451.156 542.598 451.179C542.58 451.202 542.555 451.218 542.527 451.224L538.875 452.033V445.967Z" fill="black"/>
<path d="M536.447 421.917C536.718 421.407 536.864 420.839 536.871 420.261C536.873 419.713 536.722 419.176 536.438 418.708C535.562 417.266 533.529 416.494 530.994 416.646C530.903 416.651 530.816 416.69 530.751 416.755C530.686 416.82 530.647 416.906 530.642 416.998C530.493 419.533 531.267 421.568 532.704 422.441C533.656 423.017 534.811 423.016 535.914 422.45L536.969 423.5L536.055 424.415C535.243 424.02 534.392 424.031 533.689 424.457C532.607 425.112 532.027 426.625 532.138 428.509C532.143 428.601 532.182 428.688 532.247 428.753C532.312 428.818 532.399 428.857 532.491 428.862C534.375 428.973 535.888 428.393 536.543 427.312C536.761 426.955 536.876 426.544 536.875 426.125C536.87 425.714 536.772 425.309 536.588 424.942L537.5 424.031L538.125 424.656V427.5C538.125 427.599 538.165 427.695 538.235 427.765C538.305 427.835 538.401 427.875 538.5 427.875C538.599 427.875 538.695 427.835 538.765 427.765C538.835 427.695 538.875 427.599 538.875 427.5V426.801L542.688 425.953C542.883 425.911 543.058 425.804 543.183 425.648C543.308 425.492 543.376 425.298 543.375 425.099V420.901C543.376 420.701 543.308 420.507 543.183 420.352C543.058 420.196 542.883 420.089 542.688 420.047L538.875 419.199V418.5C538.875 418.401 538.835 418.305 538.765 418.235C538.695 418.165 538.599 418.125 538.5 418.125C538.401 418.125 538.305 418.165 538.235 418.235C538.165 418.305 538.125 418.401 538.125 418.5V423.595L536.447 421.917ZM533.096 421.797C531.957 421.11 531.326 419.47 531.378 417.377C533.469 417.326 535.108 417.957 535.798 419.096C536.263 419.865 536.23 420.789 535.708 421.708C534.789 422.231 533.865 422.263 533.096 421.797ZM535.846 425.151C536.194 425.776 536.213 426.401 535.899 426.923C535.429 427.701 534.312 428.141 532.875 428.125C532.857 426.688 533.299 425.57 534.077 425.099C534.596 424.784 535.223 424.804 535.849 425.151H535.846ZM538.875 419.967L542.527 420.78C542.555 420.786 542.58 420.802 542.597 420.824C542.615 420.846 542.625 420.873 542.625 420.902V425.099C542.626 425.128 542.616 425.156 542.598 425.179C542.58 425.202 542.555 425.218 542.527 425.224L538.875 426.032V419.967Z" fill="black"/>
<path d="M393 70H419V179H393V70Z" fill="#D9D9D9"/>
<path d="M393 70H419V179H393V70Z" fill="#D9D9D9"/>
<path d="M405.447 162.917C405.718 162.407 405.864 161.839 405.871 161.261C405.873 160.713 405.722 160.176 405.438 159.708C404.562 158.266 402.529 157.494 399.994 157.646C399.903 157.651 399.816 157.69 399.751 157.755C399.686 157.82 399.647 157.906 399.642 157.998C399.493 160.533 400.267 162.568 401.704 163.441C402.656 164.018 403.811 164.016 404.914 163.45L405.969 164.5L405.055 165.415C404.243 165.02 403.392 165.031 402.689 165.457C401.607 166.112 401.027 167.625 401.138 169.509C401.143 169.601 401.182 169.688 401.247 169.753C401.312 169.818 401.399 169.857 401.491 169.862C403.375 169.973 404.888 169.393 405.543 168.312C405.761 167.955 405.876 167.544 405.875 167.125C405.87 166.714 405.772 166.309 405.588 165.942L406.5 165.031L407.125 165.656V168.5C407.125 168.599 407.165 168.695 407.235 168.765C407.305 168.835 407.401 168.875 407.5 168.875C407.599 168.875 407.695 168.835 407.765 168.765C407.835 168.695 407.875 168.599 407.875 168.5V167.801L411.688 166.953C411.883 166.911 412.058 166.804 412.183 166.648C412.308 166.492 412.376 166.298 412.375 166.099V161.901C412.376 161.701 412.308 161.507 412.183 161.352C412.058 161.196 411.883 161.089 411.688 161.047L407.875 160.199V159.5C407.875 159.401 407.835 159.305 407.765 159.235C407.695 159.165 407.599 159.125 407.5 159.125C407.401 159.125 407.305 159.165 407.235 159.235C407.165 159.305 407.125 159.401 407.125 159.5V164.595L405.447 162.917ZM402.096 162.798C400.957 162.11 400.326 160.47 400.378 158.378C402.469 158.326 404.108 158.958 404.798 160.096C405.263 160.865 405.23 161.789 404.708 162.708C403.789 163.231 402.865 163.263 402.096 162.798ZM404.846 166.151C405.194 166.776 405.213 167.401 404.899 167.923C404.429 168.701 403.312 169.141 401.875 169.125C401.857 167.688 402.299 166.57 403.077 166.099C403.596 165.784 404.223 165.804 404.849 166.151H404.846ZM407.875 160.967L411.527 161.78C411.555 161.786 411.58 161.802 411.597 161.824C411.615 161.846 411.625 161.873 411.625 161.902V166.099C411.626 166.128 411.616 166.156 411.598 166.179C411.58 166.202 411.555 166.218 411.527 166.224L407.875 167.033V160.967Z" fill="black"/>
<path d="M405.447 136.917C405.718 136.407 405.864 135.839 405.871 135.261C405.873 134.713 405.722 134.176 405.438 133.708C404.562 132.266 402.529 131.494 399.994 131.646C399.903 131.651 399.816 131.69 399.751 131.755C399.686 131.82 399.647 131.906 399.642 131.998C399.493 134.533 400.267 136.568 401.704 137.441C402.656 138.018 403.811 138.016 404.914 137.45L405.969 138.5L405.055 139.415C404.243 139.02 403.392 139.031 402.689 139.457C401.607 140.112 401.027 141.625 401.138 143.509C401.143 143.601 401.182 143.688 401.247 143.753C401.312 143.818 401.399 143.857 401.491 143.862C403.375 143.973 404.888 143.393 405.543 142.312C405.761 141.955 405.876 141.544 405.875 141.125C405.87 140.714 405.772 140.309 405.588 139.942L406.5 139.031L407.125 139.656V142.5C407.125 142.599 407.165 142.695 407.235 142.765C407.305 142.835 407.401 142.875 407.5 142.875C407.599 142.875 407.695 142.835 407.765 142.765C407.835 142.695 407.875 142.599 407.875 142.5V141.801L411.688 140.953C411.883 140.911 412.058 140.804 412.183 140.648C412.308 140.492 412.376 140.298 412.375 140.099V135.901C412.376 135.701 412.308 135.507 412.183 135.352C412.058 135.196 411.883 135.089 411.688 135.047L407.875 134.199V133.5C407.875 133.401 407.835 133.305 407.765 133.235C407.695 133.165 407.599 133.125 407.5 133.125C407.401 133.125 407.305 133.165 407.235 133.235C407.165 133.305 407.125 133.401 407.125 133.5V138.595L405.447 136.917ZM402.096 136.798C400.957 136.11 400.326 134.47 400.378 132.377C402.469 132.326 404.108 132.958 404.798 134.096C405.263 134.865 405.23 135.789 404.708 136.708C403.789 137.231 402.865 137.263 402.096 136.798ZM404.846 140.151C405.194 140.776 405.213 141.401 404.899 141.923C404.429 142.701 403.312 143.141 401.875 143.125C401.857 141.688 402.299 140.57 403.077 140.099C403.596 139.784 404.223 139.804 404.849 140.151H404.846ZM407.875 134.967L411.527 135.78C411.555 135.786 411.58 135.802 411.597 135.824C411.615 135.846 411.625 135.873 411.625 135.902V140.099C411.626 140.128 411.616 140.156 411.598 140.179C411.58 140.202 411.555 140.218 411.527 140.224L407.875 141.033V134.967Z" fill="black"/>
<path d="M405.447 110.917C405.718 110.407 405.864 109.839 405.871 109.261C405.873 108.713 405.722 108.176 405.438 107.708C404.562 106.266 402.529 105.494 399.994 105.646C399.903 105.651 399.816 105.69 399.751 105.755C399.686 105.82 399.647 105.906 399.642 105.998C399.493 108.533 400.267 110.568 401.704 111.441C402.656 112.017 403.811 112.016 404.914 111.45L405.969 112.5L405.055 113.415C404.243 113.02 403.392 113.031 402.689 113.457C401.607 114.112 401.027 115.625 401.138 117.509C401.143 117.601 401.182 117.688 401.247 117.753C401.312 117.818 401.399 117.857 401.491 117.862C403.375 117.972 404.888 117.393 405.543 116.312C405.761 115.955 405.876 115.544 405.875 115.125C405.87 114.714 405.772 114.309 405.588 113.942L406.5 113.031L407.125 113.656V116.5C407.125 116.599 407.165 116.695 407.235 116.765C407.305 116.835 407.401 116.875 407.5 116.875C407.599 116.875 407.695 116.835 407.765 116.765C407.835 116.695 407.875 116.599 407.875 116.5V115.801L411.688 114.953C411.883 114.911 412.058 114.804 412.183 114.648C412.308 114.492 412.376 114.298 412.375 114.099V109.901C412.376 109.701 412.308 109.507 412.183 109.352C412.058 109.196 411.883 109.089 411.688 109.047L407.875 108.199V107.5C407.875 107.401 407.835 107.305 407.765 107.235C407.695 107.165 407.599 107.125 407.5 107.125C407.401 107.125 407.305 107.165 407.235 107.235C407.165 107.305 407.125 107.401 407.125 107.5V112.595L405.447 110.917ZM402.096 110.798C400.957 110.11 400.326 108.47 400.378 106.377C402.469 106.326 404.108 106.957 404.798 108.096C405.263 108.865 405.23 109.789 404.708 110.708C403.789 111.231 402.865 111.263 402.096 110.798ZM404.846 114.151C405.194 114.776 405.213 115.401 404.899 115.923C404.429 116.701 403.312 117.141 401.875 117.125C401.857 115.688 402.299 114.57 403.077 114.099C403.596 113.784 404.223 113.804 404.849 114.151H404.846ZM407.875 108.967L411.527 109.78C411.555 109.786 411.58 109.802 411.597 109.824C411.615 109.846 411.625 109.873 411.625 109.902V114.099C411.626 114.128 411.616 114.156 411.598 114.179C411.58 114.202 411.555 114.218 411.527 114.224L407.875 115.033V108.967Z" fill="black"/>
<path d="M405.447 84.9169C405.718 84.4067 405.864 83.8391 405.871 83.2612C405.873 82.7135 405.722 82.176 405.438 81.7081C404.562 80.2662 402.529 79.4944 399.994 79.6456C399.903 79.651 399.816 79.6898 399.751 79.7548C399.686 79.8198 399.647 79.9064 399.642 79.9981C399.493 82.5331 400.267 84.5681 401.704 85.4412C402.656 86.0175 403.811 86.0162 404.914 85.45L405.969 86.5L405.055 87.415C404.243 87.02 403.392 87.0306 402.689 87.4569C401.607 88.1119 401.027 89.625 401.138 91.5094C401.143 91.6011 401.182 91.6877 401.247 91.7527C401.312 91.8177 401.399 91.8565 401.491 91.8619C403.375 91.9725 404.888 91.3925 405.543 90.3125C405.761 89.955 405.876 89.5439 405.875 89.125C405.87 88.7139 405.772 88.3094 405.588 87.9419L406.5 87.0306L407.125 87.6556V90.5C407.125 90.5995 407.165 90.6948 407.235 90.7652C407.305 90.8355 407.401 90.875 407.5 90.875C407.599 90.875 407.695 90.8355 407.765 90.7652C407.835 90.6948 407.875 90.5995 407.875 90.5V89.8013L411.688 88.9531C411.883 88.9113 412.058 88.8036 412.183 88.648C412.308 88.4924 412.376 88.2985 412.375 88.0988V83.9006C412.376 83.701 412.308 83.5072 412.183 83.3517C412.058 83.1963 411.883 83.0886 411.688 83.0469L407.875 82.1987V81.5C407.875 81.4005 407.835 81.3052 407.765 81.2348C407.695 81.1645 407.599 81.125 407.5 81.125C407.401 81.125 407.305 81.1645 407.235 81.2348C407.165 81.3052 407.125 81.4005 407.125 81.5V86.595L405.447 84.9169ZM402.096 84.7975C400.957 84.11 400.326 82.47 400.378 80.3775C402.469 80.3256 404.108 80.9575 404.798 82.0962C405.263 82.865 405.23 83.7894 404.708 84.7081C403.789 85.2306 402.865 85.2631 402.096 84.7975ZM404.846 88.1512C405.194 88.7762 405.213 89.4013 404.899 89.9225C404.429 90.7013 403.312 91.1406 401.875 91.125C401.857 89.6875 402.299 88.57 403.077 88.0988C403.596 87.7844 404.223 87.8037 404.849 88.1512H404.846ZM407.875 82.9675L411.527 83.78C411.555 83.7861 411.58 83.8015 411.597 83.8237C411.615 83.8458 411.625 83.8734 411.625 83.9019V88.0988C411.626 88.1277 411.616 88.156 411.598 88.1789C411.58 88.2017 411.555 88.2175 411.527 88.2238L407.875 89.0325V82.9675Z" fill="black"/>
<path d="M524 719H550V828H524V719Z" fill="#D9D9D9"/>
<path d="M524 719H550V828H524V719Z" fill="#D9D9D9"/>
<path d="M536.447 811.917C536.718 811.407 536.864 810.839 536.871 810.261C536.873 809.713 536.722 809.176 536.438 808.708C535.562 807.266 533.529 806.494 530.994 806.646C530.903 806.651 530.816 806.69 530.751 806.755C530.686 806.82 530.647 806.906 530.642 806.998C530.493 809.533 531.267 811.568 532.704 812.441C533.656 813.018 534.811 813.016 535.914 812.45L536.969 813.5L536.055 814.415C535.243 814.02 534.392 814.031 533.689 814.457C532.607 815.112 532.027 816.625 532.138 818.509C532.143 818.601 532.182 818.688 532.247 818.753C532.312 818.818 532.399 818.857 532.491 818.862C534.375 818.973 535.887 818.393 536.543 817.312C536.761 816.955 536.876 816.544 536.875 816.125C536.87 815.714 536.772 815.309 536.588 814.942L537.5 814.031L538.125 814.656V817.5C538.125 817.599 538.165 817.695 538.235 817.765C538.305 817.835 538.401 817.875 538.5 817.875C538.599 817.875 538.695 817.835 538.765 817.765C538.835 817.695 538.875 817.599 538.875 817.5V816.801L542.688 815.953C542.883 815.911 543.058 815.804 543.183 815.648C543.308 815.492 543.376 815.298 543.375 815.099V810.901C543.376 810.701 543.308 810.507 543.183 810.352C543.058 810.196 542.883 810.089 542.688 810.047L538.875 809.199V808.5C538.875 808.401 538.835 808.305 538.765 808.235C538.695 808.165 538.599 808.125 538.5 808.125C538.401 808.125 538.305 808.165 538.235 808.235C538.165 808.305 538.125 808.401 538.125 808.5V813.595L536.447 811.917ZM533.096 811.798C531.957 811.11 531.326 809.47 531.378 807.378C533.469 807.326 535.108 807.958 535.798 809.096C536.263 809.865 536.23 810.789 535.708 811.708C534.789 812.231 533.865 812.263 533.096 811.798ZM535.846 815.151C536.194 815.776 536.213 816.401 535.899 816.923C535.429 817.701 534.312 818.141 532.875 818.125C532.857 816.688 533.299 815.57 534.077 815.099C534.596 814.784 535.222 814.804 535.849 815.151H535.846ZM538.875 809.967L542.527 810.78C542.555 810.786 542.58 810.802 542.597 810.824C542.615 810.846 542.625 810.873 542.625 810.902V815.099C542.626 815.128 542.616 815.156 542.598 815.179C542.58 815.202 542.555 815.218 542.527 815.224L538.875 816.033V809.967Z" fill="black"/>
<path d="M536.447 785.917C536.718 785.407 536.864 784.839 536.871 784.261C536.873 783.713 536.722 783.176 536.438 782.708C535.562 781.266 533.529 780.494 530.994 780.646C530.903 780.651 530.816 780.69 530.751 780.755C530.686 780.82 530.647 780.906 530.642 780.998C530.493 783.533 531.267 785.568 532.704 786.441C533.656 787.018 534.811 787.016 535.914 786.45L536.969 787.5L536.055 788.415C535.243 788.02 534.392 788.031 533.689 788.457C532.607 789.112 532.027 790.625 532.138 792.509C532.143 792.601 532.182 792.688 532.247 792.753C532.312 792.818 532.399 792.857 532.491 792.862C534.375 792.973 535.887 792.393 536.543 791.312C536.761 790.955 536.876 790.544 536.875 790.125C536.87 789.714 536.772 789.309 536.588 788.942L537.5 788.031L538.125 788.656V791.5C538.125 791.599 538.165 791.695 538.235 791.765C538.305 791.835 538.401 791.875 538.5 791.875C538.599 791.875 538.695 791.835 538.765 791.765C538.835 791.695 538.875 791.599 538.875 791.5V790.801L542.688 789.953C542.883 789.911 543.058 789.804 543.183 789.648C543.308 789.492 543.376 789.298 543.375 789.099V784.901C543.376 784.701 543.308 784.507 543.183 784.352C543.058 784.196 542.883 784.089 542.688 784.047L538.875 783.199V782.5C538.875 782.401 538.835 782.305 538.765 782.235C538.695 782.165 538.599 782.125 538.5 782.125C538.401 782.125 538.305 782.165 538.235 782.235C538.165 782.305 538.125 782.401 538.125 782.5V787.595L536.447 785.917ZM533.096 785.798C531.957 785.11 531.326 783.47 531.378 781.377C533.469 781.326 535.108 781.958 535.798 783.096C536.263 783.865 536.23 784.789 535.708 785.708C534.789 786.231 533.865 786.263 533.096 785.798ZM535.846 789.151C536.194 789.776 536.213 790.401 535.899 790.923C535.429 791.701 534.312 792.141 532.875 792.125C532.857 790.688 533.299 789.57 534.077 789.099C534.596 788.784 535.222 788.804 535.849 789.151H535.846ZM538.875 783.967L542.527 784.78C542.555 784.786 542.58 784.802 542.597 784.824C542.615 784.846 542.625 784.873 542.625 784.902V789.099C542.626 789.128 542.616 789.156 542.598 789.179C542.58 789.202 542.555 789.218 542.527 789.224L538.875 790.033V783.967Z" fill="black"/>
<path d="M536.447 759.917C536.718 759.407 536.864 758.839 536.871 758.261C536.873 757.713 536.722 757.176 536.438 756.708C535.562 755.266 533.529 754.494 530.994 754.646C530.903 754.651 530.816 754.69 530.751 754.755C530.686 754.82 530.647 754.906 530.642 754.998C530.493 757.533 531.267 759.568 532.704 760.441C533.656 761.017 534.811 761.016 535.914 760.45L536.969 761.5L536.055 762.415C535.243 762.02 534.392 762.031 533.689 762.457C532.607 763.112 532.027 764.625 532.138 766.509C532.143 766.601 532.182 766.688 532.247 766.753C532.312 766.818 532.399 766.857 532.491 766.862C534.375 766.972 535.887 766.393 536.543 765.312C536.761 764.955 536.876 764.544 536.875 764.125C536.87 763.714 536.772 763.309 536.588 762.942L537.5 762.031L538.125 762.656V765.5C538.125 765.599 538.165 765.695 538.235 765.765C538.305 765.835 538.401 765.875 538.5 765.875C538.599 765.875 538.695 765.835 538.765 765.765C538.835 765.695 538.875 765.599 538.875 765.5V764.801L542.688 763.953C542.883 763.911 543.058 763.804 543.183 763.648C543.308 763.492 543.376 763.298 543.375 763.099V758.901C543.376 758.701 543.308 758.507 543.183 758.352C543.058 758.196 542.883 758.089 542.688 758.047L538.875 757.199V756.5C538.875 756.401 538.835 756.305 538.765 756.235C538.695 756.165 538.599 756.125 538.5 756.125C538.401 756.125 538.305 756.165 538.235 756.235C538.165 756.305 538.125 756.401 538.125 756.5V761.595L536.447 759.917ZM533.096 759.798C531.957 759.11 531.326 757.47 531.378 755.377C533.469 755.326 535.108 755.958 535.798 757.096C536.263 757.865 536.23 758.789 535.708 759.708C534.789 760.231 533.865 760.263 533.096 759.798ZM535.846 763.151C536.194 763.776 536.213 764.401 535.899 764.923C535.429 765.701 534.312 766.141 532.875 766.125C532.857 764.688 533.299 763.57 534.077 763.099C534.596 762.784 535.222 762.804 535.849 763.151H535.846ZM538.875 757.967L542.527 758.78C542.555 758.786 542.58 758.802 542.597 758.824C542.615 758.846 542.625 758.873 542.625 758.902V763.099C542.626 763.128 542.616 763.156 542.598 763.179C542.58 763.202 542.555 763.218 542.527 763.224L538.875 764.033V757.967Z" fill="black"/>
<path d="M536.447 733.917C536.718 733.407 536.864 732.839 536.871 732.261C536.873 731.713 536.722 731.176 536.438 730.708C535.562 729.266 533.529 728.494 530.994 728.646C530.903 728.651 530.816 728.69 530.751 728.755C530.686 728.82 530.647 728.906 530.642 728.998C530.493 731.533 531.267 733.568 532.704 734.441C533.656 735.017 534.811 735.016 535.914 734.45L536.969 735.5L536.055 736.415C535.243 736.02 534.392 736.031 533.689 736.457C532.607 737.112 532.027 738.625 532.138 740.509C532.143 740.601 532.182 740.688 532.247 740.753C532.312 740.818 532.399 740.857 532.491 740.862C534.375 740.972 535.887 740.392 536.543 739.312C536.761 738.955 536.876 738.544 536.875 738.125C536.87 737.714 536.772 737.309 536.588 736.942L537.5 736.031L538.125 736.656V739.5C538.125 739.599 538.165 739.695 538.235 739.765C538.305 739.835 538.401 739.875 538.5 739.875C538.599 739.875 538.695 739.835 538.765 739.765C538.835 739.695 538.875 739.599 538.875 739.5V738.801L542.688 737.953C542.883 737.911 543.058 737.804 543.183 737.648C543.308 737.492 543.376 737.298 543.375 737.099V732.901C543.376 732.701 543.308 732.507 543.183 732.352C543.058 732.196 542.883 732.089 542.688 732.047L538.875 731.199V730.5C538.875 730.401 538.835 730.305 538.765 730.235C538.695 730.165 538.599 730.125 538.5 730.125C538.401 730.125 538.305 730.165 538.235 730.235C538.165 730.305 538.125 730.401 538.125 730.5V735.595L536.447 733.917ZM533.096 733.797C531.957 733.11 531.326 731.47 531.378 729.377C533.469 729.326 535.108 729.957 535.798 731.096C536.263 731.865 536.23 732.789 535.708 733.708C534.789 734.231 533.865 734.263 533.096 733.797ZM535.846 737.151C536.194 737.776 536.213 738.401 535.899 738.923C535.429 739.701 534.312 740.141 532.875 740.125C532.857 738.688 533.299 737.57 534.077 737.099C534.596 736.784 535.222 736.804 535.849 737.151H535.846ZM538.875 731.967L542.527 732.78C542.555 732.786 542.58 732.802 542.597 732.824C542.615 732.846 542.625 732.873 542.625 732.902V737.099C542.626 737.128 542.616 737.156 542.598 737.179C542.58 737.202 542.555 737.218 542.527 737.224L538.875 738.032V731.967Z" fill="black"/>
<path d="M524 872H550V981H524V872Z" fill="#D9D9D9"/>
<path d="M524 872H550V981H524V872Z" fill="#D9D9D9"/>
<path d="M536.447 964.917C536.718 964.407 536.864 963.839 536.871 963.261C536.873 962.713 536.722 962.176 536.438 961.708C535.562 960.266 533.529 959.494 530.994 959.646C530.903 959.651 530.816 959.69 530.751 959.755C530.686 959.82 530.647 959.906 530.642 959.998C530.493 962.533 531.267 964.568 532.704 965.441C533.656 966.018 534.811 966.016 535.914 965.45L536.969 966.5L536.055 967.415C535.243 967.02 534.392 967.031 533.689 967.457C532.607 968.112 532.027 969.625 532.138 971.509C532.143 971.601 532.182 971.688 532.247 971.753C532.312 971.818 532.399 971.857 532.491 971.862C534.375 971.973 535.887 971.393 536.543 970.312C536.761 969.955 536.876 969.544 536.875 969.125C536.87 968.714 536.772 968.309 536.588 967.942L537.5 967.031L538.125 967.656V970.5C538.125 970.599 538.165 970.695 538.235 970.765C538.305 970.835 538.401 970.875 538.5 970.875C538.599 970.875 538.695 970.835 538.765 970.765C538.835 970.695 538.875 970.599 538.875 970.5V969.801L542.688 968.953C542.883 968.911 543.058 968.804 543.183 968.648C543.308 968.492 543.376 968.298 543.375 968.099V963.901C543.376 963.701 543.308 963.507 543.183 963.352C543.058 963.196 542.883 963.089 542.688 963.047L538.875 962.199V961.5C538.875 961.401 538.835 961.305 538.765 961.235C538.695 961.165 538.599 961.125 538.5 961.125C538.401 961.125 538.305 961.165 538.235 961.235C538.165 961.305 538.125 961.401 538.125 961.5V966.595L536.447 964.917ZM533.096 964.798C531.957 964.11 531.326 962.47 531.378 960.378C533.469 960.326 535.108 960.958 535.798 962.096C536.263 962.865 536.23 963.789 535.708 964.708C534.789 965.231 533.865 965.263 533.096 964.798ZM535.846 968.151C536.194 968.776 536.213 969.401 535.899 969.923C535.429 970.701 534.312 971.141 532.875 971.125C532.857 969.688 533.299 968.57 534.077 968.099C534.596 967.784 535.222 967.804 535.849 968.151H535.846ZM538.875 962.967L542.527 963.78C542.555 963.786 542.58 963.802 542.597 963.824C542.615 963.846 542.625 963.873 542.625 963.902V968.099C542.626 968.128 542.616 968.156 542.598 968.179C542.58 968.202 542.555 968.218 542.527 968.224L538.875 969.033V962.967Z" fill="black"/>
<path d="M536.447 938.917C536.718 938.407 536.864 937.839 536.871 937.261C536.873 936.713 536.722 936.176 536.438 935.708C535.562 934.266 533.529 933.494 530.994 933.646C530.903 933.651 530.816 933.69 530.751 933.755C530.686 933.82 530.647 933.906 530.642 933.998C530.493 936.533 531.267 938.568 532.704 939.441C533.656 940.018 534.811 940.016 535.914 939.45L536.969 940.5L536.055 941.415C535.243 941.02 534.392 941.031 533.689 941.457C532.607 942.112 532.027 943.625 532.138 945.509C532.143 945.601 532.182 945.688 532.247 945.753C532.312 945.818 532.399 945.857 532.491 945.862C534.375 945.973 535.887 945.393 536.543 944.312C536.761 943.955 536.876 943.544 536.875 943.125C536.87 942.714 536.772 942.309 536.588 941.942L537.5 941.031L538.125 941.656V944.5C538.125 944.599 538.165 944.695 538.235 944.765C538.305 944.835 538.401 944.875 538.5 944.875C538.599 944.875 538.695 944.835 538.765 944.765C538.835 944.695 538.875 944.599 538.875 944.5V943.801L542.688 942.953C542.883 942.911 543.058 942.804 543.183 942.648C543.308 942.492 543.376 942.298 543.375 942.099V937.901C543.376 937.701 543.308 937.507 543.183 937.352C543.058 937.196 542.883 937.089 542.688 937.047L538.875 936.199V935.5C538.875 935.401 538.835 935.305 538.765 935.235C538.695 935.165 538.599 935.125 538.5 935.125C538.401 935.125 538.305 935.165 538.235 935.235C538.165 935.305 538.125 935.401 538.125 935.5V940.595L536.447 938.917ZM533.096 938.798C531.957 938.11 531.326 936.47 531.378 934.377C533.469 934.326 535.108 934.958 535.798 936.096C536.263 936.865 536.23 937.789 535.708 938.708C534.789 939.231 533.865 939.263 533.096 938.798ZM535.846 942.151C536.194 942.776 536.213 943.401 535.899 943.923C535.429 944.701 534.312 945.141 532.875 945.125C532.857 943.688 533.299 942.57 534.077 942.099C534.596 941.784 535.222 941.804 535.849 942.151H535.846ZM538.875 936.967L542.527 937.78C542.555 937.786 542.58 937.802 542.597 937.824C542.615 937.846 542.625 937.873 542.625 937.902V942.099C542.626 942.128 542.616 942.156 542.598 942.179C542.58 942.202 542.555 942.218 542.527 942.224L538.875 943.033V936.967Z" fill="black"/>
<path d="M536.447 912.917C536.718 912.407 536.864 911.839 536.871 911.261C536.873 910.713 536.722 910.176 536.438 909.708C535.562 908.266 533.529 907.494 530.994 907.646C530.903 907.651 530.816 907.69 530.751 907.755C530.686 907.82 530.647 907.906 530.642 907.998C530.493 910.533 531.267 912.568 532.704 913.441C533.656 914.017 534.811 914.016 535.914 913.45L536.969 914.5L536.055 915.415C535.243 915.02 534.392 915.031 533.689 915.457C532.607 916.112 532.027 917.625 532.138 919.509C532.143 919.601 532.182 919.688 532.247 919.753C532.312 919.818 532.399 919.857 532.491 919.862C534.375 919.972 535.887 919.393 536.543 918.312C536.761 917.955 536.876 917.544 536.875 917.125C536.87 916.714 536.772 916.309 536.588 915.942L537.5 915.031L538.125 915.656V918.5C538.125 918.599 538.165 918.695 538.235 918.765C538.305 918.835 538.401 918.875 538.5 918.875C538.599 918.875 538.695 918.835 538.765 918.765C538.835 918.695 538.875 918.599 538.875 918.5V917.801L542.688 916.953C542.883 916.911 543.058 916.804 543.183 916.648C543.308 916.492 543.376 916.298 543.375 916.099V911.901C543.376 911.701 543.308 911.507 543.183 911.352C543.058 911.196 542.883 911.089 542.688 911.047L538.875 910.199V909.5C538.875 909.401 538.835 909.305 538.765 909.235C538.695 909.165 538.599 909.125 538.5 909.125C538.401 909.125 538.305 909.165 538.235 909.235C538.165 909.305 538.125 909.401 538.125 909.5V914.595L536.447 912.917ZM533.096 912.798C531.957 912.11 531.326 910.47 531.378 908.377C533.469 908.326 535.108 908.958 535.798 910.096C536.263 910.865 536.23 911.789 535.708 912.708C534.789 913.231 533.865 913.263 533.096 912.798ZM535.846 916.151C536.194 916.776 536.213 917.401 535.899 917.923C535.429 918.701 534.312 919.141 532.875 919.125C532.857 917.688 533.299 916.57 534.077 916.099C534.596 915.784 535.222 915.804 535.849 916.151H535.846ZM538.875 910.967L542.527 911.78C542.555 911.786 542.58 911.802 542.597 911.824C542.615 911.846 542.625 911.873 542.625 911.902V916.099C542.626 916.128 542.616 916.156 542.598 916.179C542.58 916.202 542.555 916.218 542.527 916.224L538.875 917.033V910.967Z" fill="black"/>
<path d="M536.447 886.917C536.718 886.407 536.864 885.839 536.871 885.261C536.873 884.713 536.722 884.176 536.438 883.708C535.562 882.266 533.529 881.494 530.994 881.646C530.903 881.651 530.816 881.69 530.751 881.755C530.686 881.82 530.647 881.906 530.642 881.998C530.493 884.533 531.267 886.568 532.704 887.441C533.656 888.017 534.811 888.016 535.914 887.45L536.969 888.5L536.055 889.415C535.243 889.02 534.392 889.031 533.689 889.457C532.607 890.112 532.027 891.625 532.138 893.509C532.143 893.601 532.182 893.688 532.247 893.753C532.312 893.818 532.399 893.857 532.491 893.862C534.375 893.972 535.887 893.392 536.543 892.312C536.761 891.955 536.876 891.544 536.875 891.125C536.87 890.714 536.772 890.309 536.588 889.942L537.5 889.031L538.125 889.656V892.5C538.125 892.599 538.165 892.695 538.235 892.765C538.305 892.835 538.401 892.875 538.5 892.875C538.599 892.875 538.695 892.835 538.765 892.765C538.835 892.695 538.875 892.599 538.875 892.5V891.801L542.688 890.953C542.883 890.911 543.058 890.804 543.183 890.648C543.308 890.492 543.376 890.298 543.375 890.099V885.901C543.376 885.701 543.308 885.507 543.183 885.352C543.058 885.196 542.883 885.089 542.688 885.047L538.875 884.199V883.5C538.875 883.401 538.835 883.305 538.765 883.235C538.695 883.165 538.599 883.125 538.5 883.125C538.401 883.125 538.305 883.165 538.235 883.235C538.165 883.305 538.125 883.401 538.125 883.5V888.595L536.447 886.917ZM533.096 886.797C531.957 886.11 531.326 884.47 531.378 882.377C533.469 882.326 535.108 882.957 535.798 884.096C536.263 884.865 536.23 885.789 535.708 886.708C534.789 887.231 533.865 887.263 533.096 886.797ZM535.846 890.151C536.194 890.776 536.213 891.401 535.899 891.923C535.429 892.701 534.312 893.141 532.875 893.125C532.857 891.688 533.299 890.57 534.077 890.099C534.596 889.784 535.222 889.804 535.849 890.151H535.846ZM538.875 884.967L542.527 885.78C542.555 885.786 542.58 885.802 542.597 885.824C542.615 885.846 542.625 885.873 542.625 885.902V890.099C542.626 890.128 542.616 890.156 542.598 890.179C542.58 890.202 542.555 890.218 542.527 890.224L538.875 891.032V884.967Z" fill="black"/>
<path d="M675 733C675 727.477 679.477 723 685 723H727C732.523 723 737 727.477 737 733V1021C737 1026.52 732.523 1031 727 1031H685C679.477 1031 675 1026.52 675 1021V733Z" fill="#D9D9D9"/>
<path d="M737 733H744V753H737V733Z" fill="#ACACAC"/>
<path d="M668 733L675 733V753H668V733Z" fill="#ACACAC"/>
<path d="M737 846H744V866H737V846Z" fill="#ACACAC"/>
<path d="M668 846H675V866H668V846Z" fill="#ACACAC"/>
<path d="M737 960H744V979H737V960Z" fill="#ACACAC"/>
<path d="M668 960H675V979H668V960Z" fill="#ACACAC"/>
<path d="M737 771H744V791H737V771Z" fill="#ACACAC"/>
<path d="M668 771H675V791H668V771Z" fill="#ACACAC"/>
<path d="M737 884H744V904H737V884Z" fill="#ACACAC"/>
<path d="M668 884H675V904H668V884Z" fill="#ACACAC"/>
<path d="M737 997H744V1017H737V997Z" fill="#ACACAC"/>
<path d="M668 997H675V1017H668V997Z" fill="#ACACAC"/>
<path d="M737 809H744V828H737V809Z" fill="#ACACAC"/>
<path d="M668 809H675V828H668V809Z" fill="#ACACAC"/>
<path d="M737 922H744V941H737V922Z" fill="#ACACAC"/>
<path d="M668 922H675V941H668V922Z" fill="#ACACAC"/>
<path d="M340 63C345.523 63 350 67.4772 350 73V115C350 120.523 345.523 125 340 125H52C46.4772 125 42 120.523 42 115V73C42 67.4772 46.4772 63 52 63H340Z" fill="#D9D9D9"/>
<path d="M340 125V132H320V125H340Z" fill="#ACACAC"/>
<path d="M340 56L340 63H320V56H340Z" fill="#ACACAC"/>
<path d="M227 125V132H207V125H227Z" fill="#ACACAC"/>
<path d="M227 56V63H207V56H227Z" fill="#ACACAC"/>
<path d="M113 125V132H94V125H113Z" fill="#ACACAC"/>
<path d="M113 56V63H94V56H113Z" fill="#ACACAC"/>
<path d="M302 125V132H282V125H302Z" fill="#ACACAC"/>
<path d="M302 56V63H282V56H302Z" fill="#ACACAC"/>
<path d="M189 125V132H169V125H189Z" fill="#ACACAC"/>
<path d="M189 56V63H169V56H189Z" fill="#ACACAC"/>
<path d="M76 125V132H56V125H76Z" fill="#ACACAC"/>
<path d="M76 56V63H56V56H76Z" fill="#ACACAC"/>
<path d="M264 125V132H245V125H264Z" fill="#ACACAC"/>
<path d="M264 56V63H245V56H264Z" fill="#ACACAC"/>
<path d="M151 125V132H132V125H151Z" fill="#ACACAC"/>
<path d="M151 56V63H132V56H151Z" fill="#ACACAC"/>
<path d="M340 149C345.523 149 350 153.477 350 159V201C350 206.523 345.523 211 340 211H52C46.4772 211 42 206.523 42 201V159C42 153.477 46.4772 149 52 149H340Z" fill="#D9D9D9"/>
<path d="M340 211V218H320V211H340Z" fill="#ACACAC"/>
<path d="M340 142L340 149H320V142H340Z" fill="#ACACAC"/>
<path d="M227 211V218H207V211H227Z" fill="#ACACAC"/>
<path d="M227 142V149H207V142H227Z" fill="#ACACAC"/>
<path d="M113 211V218H94V211H113Z" fill="#ACACAC"/>
<path d="M113 142V149H94V142H113Z" fill="#ACACAC"/>
<path d="M302 211V218H282V211H302Z" fill="#ACACAC"/>
<path d="M302 142V149H282V142H302Z" fill="#ACACAC"/>
<path d="M189 211V218H169V211H189Z" fill="#ACACAC"/>
<path d="M189 142V149H169V142H189Z" fill="#ACACAC"/>
<path d="M76 211V218H56V211H76Z" fill="#ACACAC"/>
<path d="M76 142V149H56V142H76Z" fill="#ACACAC"/>
<path d="M264 211V218H245V211H264Z" fill="#ACACAC"/>
<path d="M264 142V149H245V142H264Z" fill="#ACACAC"/>
<path d="M151 211V218H132V211H151Z" fill="#ACACAC"/>
<path d="M151 142V149H132V142H151Z" fill="#ACACAC"/>
<path d="M734 675C734 680.523 729.523 685 724 685H682C676.477 685 672 680.523 672 675V575C672 569.477 676.477 565 682 565H724C729.523 565 734 569.477 734 575V675Z" fill="#D9D9D9"/>
<path d="M672 636H665V617H672V636Z" fill="#ACACAC"/>
<path d="M741 636H734V617H741V636Z" fill="#ACACAC"/>
<path d="M672 599H665V579H672V599Z" fill="#ACACAC"/>
<path d="M741 599H734V579H741V599Z" fill="#ACACAC"/>
<path d="M672 674H665V655H672V674Z" fill="#ACACAC"/>
<path d="M741 674H734V655H741V674Z" fill="#ACACAC"/>
<path d="M734 361C734 366.523 729.523 371 724 371H682C676.477 371 672 366.523 672 361V261C672 255.477 676.477 251 682 251H724C729.523 251 734 255.477 734 261V361Z" fill="#D9D9D9"/>
<path d="M672 322H665V303H672V322Z" fill="#ACACAC"/>
<path d="M741 322H734V303H741V322Z" fill="#ACACAC"/>
<path d="M672 285H665V265H672V285Z" fill="#ACACAC"/>
<path d="M741 285H734V265H741V285Z" fill="#ACACAC"/>
<path d="M672 360H665V341H672V360Z" fill="#ACACAC"/>
<path d="M741 360H734V341H741V360Z" fill="#ACACAC"/>
<line x1="631" y1="1069.5" x2="782" y2="1069.5" stroke="black"/>
<line x1="631" y1="708.5" x2="782" y2="708.5" stroke="#969292"/>
<line x1="630" y1="527.5" x2="783" y2="527.5" stroke="#969292"/>
<line x1="630" y1="384.5" x2="781" y2="384.5" stroke="#969292"/>
<line x1="675" y1="1068" x2="737" y2="1068" stroke="black" stroke-width="4"/>
<path d="M534.279 66.9437V77.7417C534.279 79.5167 532.071 80.8479 529.421 80.8479H486.579C483.929 80.8479 481.721 79.3687 481.721 77.7417V66.9437" stroke="black" stroke-width="0.5" stroke-linecap="round" stroke-linejoin="round"/>
<path d="M532.292 58.3646C533.396 58.3646 534.279 58.9562 534.279 59.6958V67.0917C534.279 67.8312 535.163 68.4229 536.267 68.4229H544.658C548.854 68.4229 551.946 66.5 551.063 64.8729C548.854 61.3229 541.788 51.1167 541.788 51.1167C540.904 49.9333 538.696 49.3417 537.371 49.3417H480.396C477.746 49.3417 475.317 50.0812 474.433 51.1167C474.433 51.1167 467.367 61.4708 465.158 64.8729C464.275 66.3521 467.146 68.4229 471.563 68.4229H479.954C481.058 68.4229 481.942 67.8312 481.942 67.0917V59.6958C481.942 58.9562 482.825 58.3646 483.929 58.3646H532.292Z" stroke="black" stroke-width="0.5" stroke-miterlimit="10" stroke-linecap="round" stroke-linejoin="round"/>
<g clip-path="url(#clip0_0_1)">
<path d="M615.944 30.7208H626.742C628.517 30.7208 629.848 32.9292 629.848 35.5792V78.4208C629.848 81.0708 628.369 83.2792 626.742 83.2792H615.944" stroke="black" stroke-width="0.5" stroke-linecap="round" stroke-linejoin="round"/>
<path d="M607.365 32.7083C607.365 31.6042 607.956 30.7208 608.696 30.7208H616.092C616.831 30.7208 617.423 29.8375 617.423 28.7333V20.3417C617.423 16.1458 615.5 13.0542 613.873 13.9375C610.323 16.1458 600.117 23.2125 600.117 23.2125C598.933 24.0958 598.342 26.3042 598.342 27.6292V84.6042C598.342 87.2542 599.081 89.6833 600.117 90.5667C600.117 90.5667 610.471 97.6333 613.873 99.8417C615.352 100.725 617.423 97.8542 617.423 93.4375V85.0458C617.423 83.9417 616.831 83.0583 616.092 83.0583H608.696C607.956 83.0583 607.365 82.175 607.365 81.0708V32.7083Z" stroke="black" stroke-width="0.5" stroke-miterlimit="10" stroke-linecap="round" stroke-linejoin="round"/>
</g>
<g clip-path="url(#clip1_0_1)">
<path d="M705.056 82.2792H694.258C692.483 82.2792 691.152 80.0708 691.152 77.4208V34.5792C691.152 31.9292 692.631 29.7208 694.258 29.7208H705.056" stroke="black" stroke-width="0.5" stroke-linecap="round" stroke-linejoin="round"/>
<path d="M713.635 80.2917C713.635 81.3958 713.044 82.2792 712.304 82.2792H704.908C704.169 82.2792 703.577 83.1625 703.577 84.2667V92.6583C703.577 96.8542 705.5 99.9458 707.127 99.0625C710.677 96.8542 720.883 89.7875 720.883 89.7875C722.067 88.9042 722.658 86.6958 722.658 85.3708V28.3958C722.658 25.7458 721.919 23.3167 720.883 22.4333C720.883 22.4333 710.529 15.3667 707.127 13.1583C705.648 12.275 703.577 15.1458 703.577 19.5625V27.9542C703.577 29.0583 704.169 29.9417 704.908 29.9417H712.304C713.044 29.9417 713.635 30.825 713.635 31.9292V80.2917Z" stroke="black" stroke-width="0.5" stroke-miterlimit="10" stroke-linecap="round" stroke-linejoin="round"/>
</g>
<g clip-path="url(#clip2_0_1)">
<path d="M450.944 98.7208H461.742C463.517 98.7208 464.848 100.929 464.848 103.579V146.421C464.848 149.071 463.369 151.279 461.742 151.279H450.944" stroke="black" stroke-width="0.5" stroke-linecap="round" stroke-linejoin="round"/>
<path d="M442.365 100.708C442.365 99.6042 442.956 98.7208 443.696 98.7208H451.092C451.831 98.7208 452.423 97.8375 452.423 96.7333V88.3417C452.423 84.1458 450.5 81.0542 448.873 81.9375C445.323 84.1458 435.117 91.2125 435.117 91.2125C433.933 92.0958 433.342 94.3042 433.342 95.6292V152.604C433.342 155.254 434.081 157.683 435.117 158.567C435.117 158.567 445.471 165.633 448.873 167.842C450.352 168.725 452.423 165.854 452.423 161.437V153.046C452.423 151.942 451.831 151.058 451.092 151.058H443.696C442.956 151.058 442.365 150.175 442.365 149.071V100.708Z" stroke="black" stroke-width="0.5" stroke-miterlimit="10" stroke-linecap="round" stroke-linejoin="round"/>
</g>
<rect x="633" y="29" width="55" height="55" fill="#D9D9D9"/>
<path d="M54 1156C54 1151.58 57.5817 1148 62 1148H106C110.418 1148 114 1151.58 114 1156V1200C114 1204.42 110.418 1208 106 1208H62C57.5817 1208 54 1204.42 54 1200V1156Z" fill="#D9D9D9"/>
<path d="M71 1208H97V1214H71V1208Z" fill="#ABABAB"/>
<path d="M71 1142H97V1148H71V1142Z" fill="#ABABAB"/>
<path d="M120 1165V1191H114V1165H120Z" fill="#ABABAB"/>
<path d="M54 1165V1191H48V1165H54Z" fill="#ABABAB"/>
<path d="M675 1144C675 1139.58 678.582 1136 683 1136H727C731.418 1136 735 1139.58 735 1144V1188C735 1192.42 731.418 1196 727 1196H683C678.582 1196 675 1192.42 675 1188V1144Z" fill="#D9D9D9"/>
<path d="M692 1196H718V1202H692V1196Z" fill="#ABABAB"/>
<path d="M692 1130H718V1136H692V1130Z" fill="#ABABAB"/>
<path d="M741 1153V1179H735V1153H741Z" fill="#ABABAB"/>
<path d="M675 1153V1179H669V1153H675Z" fill="#ABABAB"/>
<path d="M675 439C675 434.582 678.582 431 683 431H727C731.418 431 735 434.582 735 439V483C735 487.418 731.418 491 727 491H683C678.582 491 675 487.418 675 483V439Z" fill="#D9D9D9"/>
<path d="M692 491H718V497H692V491Z" fill="#ABABAB"/>
<path d="M692 425H718V431H692V425Z" fill="#ABABAB"/>
<path d="M741 448V474H735V448H741Z" fill="#ABABAB"/>
<path d="M675 448V474H669V448H675Z" fill="#ABABAB"/>
<defs>
<clipPath id="clip0_0_1">
<rect width="106" height="71" fill="white" transform="matrix(0 1 -1 0 651 4)"/>
</clipPath>
<clipPath id="clip1_0_1">
<rect width="106" height="71" fill="white" transform="matrix(0 -1 1 0 670 109)"/>
</clipPath>
<clipPath id="clip2_0_1">
<rect width="106" height="71" fill="white" transform="matrix(0 1 -1 0 486 72)"/>
</clipPath>
</defs>
</svg>
